<mxfile host="Electron" modified="2024-12-05T21:59:19.734Z" agent="Mozilla/5.0 (Windows NT 10.0; Win64; x64) AppleWebKit/537.36 (KHTML, like Gecko) draw.io/24.4.6 Chrome/124.0.6367.207 Electron/30.0.6 Safari/537.36" etag="xNJi7XfnCo2AI641p6vC" version="24.4.6" type="device" pages="3">
  <diagram name="Получение множества точек" id="T3pRIBn31N7yvrqbDsPo">
    <mxGraphModel dx="875" dy="558" grid="1" gridSize="10" guides="1" tooltips="1" connect="1" arrows="1" fold="1" page="1" pageScale="1" pageWidth="827" pageHeight="1169" math="0" shadow="0">
      <root>
        <mxCell id="0" />
        <mxCell id="1" parent="0" />
        <mxCell id="97a9B03GStSE_R5qGmRa-31" style="edgeStyle=orthogonalEdgeStyle;rounded=0;orthogonalLoop=1;jettySize=auto;html=1;exitX=0.5;exitY=1;exitDx=0;exitDy=0;entryX=0.5;entryY=0;entryDx=0;entryDy=0;" edge="1" parent="1" source="97a9B03GStSE_R5qGmRa-1" target="97a9B03GStSE_R5qGmRa-2">
          <mxGeometry relative="1" as="geometry" />
        </mxCell>
        <mxCell id="97a9B03GStSE_R5qGmRa-1" value="&lt;p style=&quot;line-height: 1 ; font-size: 10px&quot;&gt;&lt;font face=&quot;Helvetica&quot;&gt;Начало&lt;/font&gt;&lt;/p&gt;" style="shape=stencil(vZXxboMgEMafhj9dUNwDLG57j9NelRTBIKv27YegWdHq1s3OmJD7Dn/3nZyRsKytoEGSUAk1EvZKkiTHkku7WrHySkp92PkwnmJoGyyMF8+gOeQCfaY1Wp2w4wczIrisUHMzZNkboS92z3CzrFBSWghXsg0yV3kLAy7ts7T3sLH8JYgay6/RoB5NepUk7z/HPj0/Bhw/yG+Indzv7nc/cOg4ftTB7QaOf49lmVXWhptlORSnUqsPebhp5siFKJRQ2oZ+dbVIwuh4bTfTwPDhLRJTulZn/OpydizpJntCgC5WCWOkZ1l9CWMBusTIgqKjgDJ4m22H2CzlPoKet5FWBoaXGlTbtiu4vOo4vm34jo7nhPQPPdN/6fmuU3bTuxgip65Mrp1ZpfGbkfa/hY2qqxtc6UUFp/o/mBM+AQ==);whiteSpace=wrap;html=1;aspect=fixed;fontFamily=Times New Roman;fontSize=10;spacingBottom=4;" vertex="1" parent="1">
          <mxGeometry x="130" y="40" width="140" height="40" as="geometry" />
        </mxCell>
        <mxCell id="97a9B03GStSE_R5qGmRa-32" style="edgeStyle=orthogonalEdgeStyle;rounded=0;orthogonalLoop=1;jettySize=auto;html=1;exitX=0.5;exitY=1;exitDx=0;exitDy=0;entryX=0.5;entryY=0;entryDx=0;entryDy=0;" edge="1" parent="1" source="97a9B03GStSE_R5qGmRa-2" target="97a9B03GStSE_R5qGmRa-3">
          <mxGeometry relative="1" as="geometry" />
        </mxCell>
        <mxCell id="97a9B03GStSE_R5qGmRa-2" value="&lt;p style=&quot;line-height: 1&quot;&gt;&lt;font face=&quot;Helvetica&quot;&gt;Определение ограничивающей прямой призмы&lt;/font&gt;&lt;/p&gt;" style="shape=stencil(tVTRboMwDPyavFYh2T5gYtt/pKlXotIkcrJ1/fuaGKQiBq0mQEjgu3B3Bhyh69SYCEJJb84g9LtQKmKwkBLdEdww9iK5vHBZDbVJEWxm8MegM/sWmEkZwwku7pB7CecbQJc7Vn8I+UZrulPXNnhPIi74NGLueBIzztOz8pfFevvrqIqkf4YM2IdkVKjP52V3r9sIVxvlHcsO6VfPu57wOHG11YdbTbj6v6yuCZn7uXW9N/Z0xPDtD3+G+XJta0MbkEq+Fi+htOyP5Wai6QZvQgw0dmO7PE4PRn/OmPCJd0FnGqZWA8KDN8G7yYLr7IJiPXEoKG99BbgB);whiteSpace=wrap;html=1;aspect=fixed;fontFamily=Times New Roman;fontSize=10;spacingBottom=4;" vertex="1" parent="1">
          <mxGeometry x="130" y="127" width="140" height="40" as="geometry" />
        </mxCell>
        <mxCell id="97a9B03GStSE_R5qGmRa-33" style="edgeStyle=orthogonalEdgeStyle;rounded=0;orthogonalLoop=1;jettySize=auto;html=1;exitX=0.5;exitY=1;exitDx=0;exitDy=0;entryX=0.5;entryY=0;entryDx=0;entryDy=0;" edge="1" parent="1" source="97a9B03GStSE_R5qGmRa-3" target="97a9B03GStSE_R5qGmRa-5">
          <mxGeometry relative="1" as="geometry" />
        </mxCell>
        <mxCell id="97a9B03GStSE_R5qGmRa-3" value="&lt;p style=&quot;line-height: 1&quot;&gt;&lt;font face=&quot;Helvetica&quot;&gt;Определение XY проекции ограничивающей прямой призмы&lt;/font&gt;&lt;/p&gt;" style="shape=stencil(tVTRboMwDPyavFYh2T5gYtt/pKlXotIkcrJ1/fuaGKQiBq0mQEjgu3B3Bhyh69SYCEJJb84g9LtQKmKwkBLdEdww9iK5vHBZDbVJEWxm8MegM/sWmEkZwwku7pB7CecbQJc7Vn8I+UZrulPXNnhPIi74NGLueBIzztOz8pfFevvrqIqkf4YM2IdkVKjP52V3r9sIVxvlHcsO6VfPu57wOHG11YdbTbj6v6yuCZn7uXW9N/Z0xPDtD3+G+XJta0MbkEq+Fi+htOyP5Wai6QZvQgw0dmO7PE4PRn/OmPCJd0FnGqZWA8KDN8G7yYLr7IJiPXEoKG99BbgB);whiteSpace=wrap;html=1;aspect=fixed;fontFamily=Times New Roman;fontSize=10;spacingBottom=4;" vertex="1" parent="1">
          <mxGeometry x="130" y="213" width="140" height="40" as="geometry" />
        </mxCell>
        <mxCell id="97a9B03GStSE_R5qGmRa-35" style="edgeStyle=orthogonalEdgeStyle;rounded=0;orthogonalLoop=1;jettySize=auto;html=1;exitX=0.5;exitY=1;exitDx=0;exitDy=0;exitPerimeter=0;entryX=0.5;entryY=0;entryDx=0;entryDy=0;" edge="1" parent="1" source="97a9B03GStSE_R5qGmRa-4" target="97a9B03GStSE_R5qGmRa-14">
          <mxGeometry relative="1" as="geometry" />
        </mxCell>
        <mxCell id="97a9B03GStSE_R5qGmRa-4" value="&lt;p style=&quot;line-height: 1&quot;&gt;&lt;font face=&quot;Helvetica&quot;&gt;Цикл по точкам XY проекции с заданной точностью&lt;/font&gt;&lt;/p&gt;" style="strokeWidth=1;html=1;shape=stencil(rVXBUoMwFPyaXJmQ1EOPivXoxYPnlD5LpiEvE7C1f2/gwQgCbU1lmIG3C7t5ZBOYzKpCOWCCW1UCk89MCIPonmCvbbgPREHoilN5ojLta1U5yGsCj8prtTVATFV7PMBJ7+pOQtsCvK4bVm4YfwzPNKfMcrQ2iGi01YgZ8EFMaRve5V8kxpMHsjl3NVUuOJRQgx+hP829EsDES7RTepvTW4TTuKPe95rT+9+d0jinTczX478mKknXN85VRGM8WUfbLXQns4AsRVRmW5Uf9h4/7W52kB/amBwN+lDStTVjQvLuuNykU83ymRA9XeIRBtM6uybmpXsFo+1QQdwv0W8N5/Gg7tFYRYzjvxWi+oj4mrnBCi4kIuCTULToQhJDBtHDlYjSZr2U/olAi9KvowW+AQ==);whiteSpace=wrap;fontSize=10;fontFamily=Times New Roman;spacingLeft=10;spacingRight=10;spacingBottom=4;aspect=fixed;" vertex="1" parent="1">
          <mxGeometry x="130" y="387" width="140" height="40" as="geometry" />
        </mxCell>
        <mxCell id="97a9B03GStSE_R5qGmRa-34" style="edgeStyle=orthogonalEdgeStyle;rounded=0;orthogonalLoop=1;jettySize=auto;html=1;exitX=0.5;exitY=1;exitDx=0;exitDy=0;" edge="1" parent="1" source="97a9B03GStSE_R5qGmRa-5" target="97a9B03GStSE_R5qGmRa-4">
          <mxGeometry relative="1" as="geometry" />
        </mxCell>
        <mxCell id="97a9B03GStSE_R5qGmRa-5" value="&lt;p style=&quot;line-height: 1&quot;&gt;&lt;font face=&quot;Helvetica&quot;&gt;Определение внутренних нормалей полигона&lt;/font&gt;&lt;/p&gt;" style="shape=stencil(tVTRboMwDPyavFYh2T5gYtt/pKlXotIkcrJ1/fuaGKQiBq0mQEjgu3B3Bhyh69SYCEJJb84g9LtQKmKwkBLdEdww9iK5vHBZDbVJEWxm8MegM/sWmEkZwwku7pB7CecbQJc7Vn8I+UZrulPXNnhPIi74NGLueBIzztOz8pfFevvrqIqkf4YM2IdkVKjP52V3r9sIVxvlHcsO6VfPu57wOHG11YdbTbj6v6yuCZn7uXW9N/Z0xPDtD3+G+XJta0MbkEq+Fi+htOyP5Wai6QZvQgw0dmO7PE4PRn/OmPCJd0FnGqZWA8KDN8G7yYLr7IJiPXEoKG99BbgB);whiteSpace=wrap;html=1;aspect=fixed;fontFamily=Times New Roman;fontSize=10;spacingBottom=4;" vertex="1" parent="1">
          <mxGeometry x="130" y="300" width="140" height="40" as="geometry" />
        </mxCell>
        <mxCell id="97a9B03GStSE_R5qGmRa-38" style="edgeStyle=orthogonalEdgeStyle;rounded=0;orthogonalLoop=1;jettySize=auto;html=1;exitX=0.5;exitY=1;exitDx=0;exitDy=0;exitPerimeter=0;entryX=0.5;entryY=0;entryDx=0;entryDy=0;" edge="1" parent="1" source="97a9B03GStSE_R5qGmRa-6" target="97a9B03GStSE_R5qGmRa-7">
          <mxGeometry relative="1" as="geometry" />
        </mxCell>
        <mxCell id="97a9B03GStSE_R5qGmRa-6" value="&lt;p style=&quot;line-height: 1&quot;&gt;&lt;font face=&quot;Helvetica&quot;&gt;Цикл по всем сторонам полигона&lt;/font&gt;&lt;/p&gt;" style="strokeWidth=1;html=1;shape=stencil(rVXBUoMwFPyaXJmQ1EOPivXoxYPnlD5LpiEvE7C1f2/gwQgCbU1lmIG3C7t5ZBOYzKpCOWCCW1UCk89MCIPonmCvbbgPREHoilN5ojLta1U5yGsCj8prtTVATFV7PMBJ7+pOQtsCvK4bVm4YfwzPNKfMcrQ2iGi01YgZ8EFMaRve5V8kxpMHsjl3NVUuOJRQgx+hP829EsDES7RTepvTW4TTuKPe95rT+9+d0jinTczX478mKknXN85VRGM8WUfbLXQns4AsRVRmW5Uf9h4/7W52kB/amBwN+lDStTVjQvLuuNykU83ymRA9XeIRBtM6uybmpXsFo+1QQdwv0W8N5/Gg7tFYRYzjvxWi+oj4mrnBCi4kIuCTULToQhJDBtHDlYjSZr2U/olAi9KvowW+AQ==);whiteSpace=wrap;fontSize=10;fontFamily=Times New Roman;spacingLeft=10;spacingRight=10;spacingBottom=4;aspect=fixed;" vertex="1" parent="1">
          <mxGeometry x="418" y="100" width="140" height="40" as="geometry" />
        </mxCell>
        <mxCell id="97a9B03GStSE_R5qGmRa-39" style="edgeStyle=orthogonalEdgeStyle;rounded=0;orthogonalLoop=1;jettySize=auto;html=1;exitX=0.5;exitY=1;exitDx=0;exitDy=0;entryX=0.5;entryY=0;entryDx=0;entryDy=0;" edge="1" parent="1" source="97a9B03GStSE_R5qGmRa-7" target="97a9B03GStSE_R5qGmRa-8">
          <mxGeometry relative="1" as="geometry" />
        </mxCell>
        <mxCell id="97a9B03GStSE_R5qGmRa-7" value="&lt;p style=&quot;line-height: 1&quot;&gt;&lt;font face=&quot;Helvetica&quot;&gt;Определение вектора W&lt;sub&gt;i&lt;/sub&gt;&lt;/font&gt;&lt;/p&gt;" style="shape=stencil(tVTRboMwDPyavFYh2T5gYtt/pKlXotIkcrJ1/fuaGKQiBq0mQEjgu3B3Bhyh69SYCEJJb84g9LtQKmKwkBLdEdww9iK5vHBZDbVJEWxm8MegM/sWmEkZwwku7pB7CecbQJc7Vn8I+UZrulPXNnhPIi74NGLueBIzztOz8pfFevvrqIqkf4YM2IdkVKjP52V3r9sIVxvlHcsO6VfPu57wOHG11YdbTbj6v6yuCZn7uXW9N/Z0xPDtD3+G+XJta0MbkEq+Fi+htOyP5Wai6QZvQgw0dmO7PE4PRn/OmPCJd0FnGqZWA8KDN8G7yYLr7IJiPXEoKG99BbgB);whiteSpace=wrap;html=1;aspect=fixed;fontFamily=Times New Roman;fontSize=10;spacingBottom=4;" vertex="1" parent="1">
          <mxGeometry x="418" y="160" width="140" height="40" as="geometry" />
        </mxCell>
        <mxCell id="97a9B03GStSE_R5qGmRa-8" value="&lt;p style=&quot;line-height: 1&quot;&gt;&lt;font face=&quot;Helvetica&quot;&gt;Определение скалярного произведения N&lt;sub&gt;i&lt;/sub&gt;&amp;nbsp;· W&lt;sub&gt;i&lt;/sub&gt;&lt;/font&gt;&lt;/p&gt;" style="shape=stencil(tVTRboMwDPyavFYh2T5gYtt/pKlXotIkcrJ1/fuaGKQiBq0mQEjgu3B3Bhyh69SYCEJJb84g9LtQKmKwkBLdEdww9iK5vHBZDbVJEWxm8MegM/sWmEkZwwku7pB7CecbQJc7Vn8I+UZrulPXNnhPIi74NGLueBIzztOz8pfFevvrqIqkf4YM2IdkVKjP52V3r9sIVxvlHcsO6VfPu57wOHG11YdbTbj6v6yuCZn7uXW9N/Z0xPDtD3+G+XJta0MbkEq+Fi+htOyP5Wai6QZvQgw0dmO7PE4PRn/OmPCJd0FnGqZWA8KDN8G7yYLr7IJiPXEoKG99BbgB);whiteSpace=wrap;html=1;aspect=fixed;fontFamily=Times New Roman;fontSize=10;spacingBottom=4;" vertex="1" parent="1">
          <mxGeometry x="418" y="220" width="140" height="40" as="geometry" />
        </mxCell>
        <mxCell id="97a9B03GStSE_R5qGmRa-41" style="edgeStyle=orthogonalEdgeStyle;rounded=0;orthogonalLoop=1;jettySize=auto;html=1;exitX=0.5;exitY=1;exitDx=0;exitDy=0;exitPerimeter=0;entryX=0.5;entryY=0;entryDx=0;entryDy=0;" edge="1" parent="1" source="97a9B03GStSE_R5qGmRa-11" target="97a9B03GStSE_R5qGmRa-12">
          <mxGeometry relative="1" as="geometry" />
        </mxCell>
        <mxCell id="97a9B03GStSE_R5qGmRa-11" value="&lt;p style=&quot;line-height: 1&quot;&gt;&lt;font face=&quot;Helvetica&quot;&gt;Конец цикла по всем сторонам&lt;/font&gt;&lt;/p&gt;" style="strokeWidth=1;html=1;shape=stencil(rVTBUoMwEP2aXJmQtDN6dBCPvXjwnNJVMk2zTMBW/96FBS0itEYZZmDfwnt52d0IndWlqUAo6c0BhL4XSjnEKvc7eiO4ZGwlOTxxmA6xqSsoGgaPJlizdcCZugm4h5PdNT2F9SUE27RZnQt5R9+0t84K9J5ILPp6lDnLE5mxnv6Vb0wmkzXLvPcxRxUpHKCBMEK/rG0YEOohWim9TukxQmnsaNC9pPT0e6U0TimP2T35rVDJzZU7uIkwJpPbaLkZdzojZK5FdbY1xf4l4CvNy0+LfLbOFegwUMjPTkwoLftr2WRl2vGZJIb0AY8w20BLzAOBs/6M4HOs/49CrSM41LiIq5h1/J0ixkjhsIaFehI+KWmHzvQRdRAGuNBgfNTO9e6EoEP52O+ADw==);whiteSpace=wrap;fontSize=10;fontFamily=Times New Roman;spacingLeft=10;spacingRight=10;spacingBottom=4;aspect=fixed;" vertex="1" parent="1">
          <mxGeometry x="418" y="280" width="140" height="40" as="geometry" />
        </mxCell>
        <mxCell id="97a9B03GStSE_R5qGmRa-16" style="edgeStyle=orthogonalEdgeStyle;rounded=0;orthogonalLoop=1;jettySize=auto;html=1;exitX=1;exitY=0.5;exitDx=0;exitDy=0;entryX=0.5;entryY=0;entryDx=0;entryDy=0;" edge="1" parent="1" source="97a9B03GStSE_R5qGmRa-12" target="97a9B03GStSE_R5qGmRa-13">
          <mxGeometry relative="1" as="geometry" />
        </mxCell>
        <mxCell id="97a9B03GStSE_R5qGmRa-17" style="edgeStyle=orthogonalEdgeStyle;rounded=0;orthogonalLoop=1;jettySize=auto;html=1;exitX=0;exitY=0.5;exitDx=0;exitDy=0;entryX=0.5;entryY=0;entryDx=0;entryDy=0;" edge="1" parent="1" source="97a9B03GStSE_R5qGmRa-12" target="97a9B03GStSE_R5qGmRa-15">
          <mxGeometry relative="1" as="geometry" />
        </mxCell>
        <mxCell id="97a9B03GStSE_R5qGmRa-12" value="&lt;p style=&quot;line-height: 1&quot;&gt;&lt;font face=&quot;Helvetica&quot;&gt;Все скалярные&lt;br&gt;произведения &amp;gt; 0&lt;/font&gt;&lt;/p&gt;" style="shape=stencil(tZTdboQgEIWfhtsGYZu9bmz7HixOK1kEA3S3ffsdAdu1/rQxakx0zuA3B0YgvPS1aIEwakQDhD8TxiqQyitr8BX1OokHmsJrCos+Fr4FGZJ4EU6Jk4aU8cHZM1xVFTJCmRqcCl2WvxD6hGO6m5fSGoMQLOkHmbs8woQy+C39TLBc/msQtchvIIDLJpNK2Ov/sQ+P+4CLnfwOsb37zf1uBx46LvZq3GbgYj2Wl6jM/dy8PAl5fnf2w1STZt6U1tJq6zBMz1iLME7ztTyZVnQbb5To0429wM8sj5P7aRrdE7Qyd4TvEyEj1jB+uTisQKwxIbX1sLCSqI8WM6ozHcTeWQd/tDYdjwtVZwfE0qMKUU2HeRRu);whiteSpace=wrap;html=1;aspect=fixed;fontFamily=Times New Roman;fontSize=10;spacingBottom=4;rounded=0;shadow=0;sketch=0;spacingLeft=20;spacingRight=20;" vertex="1" parent="1">
          <mxGeometry x="418" y="340" width="140" height="40" as="geometry" />
        </mxCell>
        <mxCell id="97a9B03GStSE_R5qGmRa-13" value="&lt;p style=&quot;line-height: 1&quot;&gt;&lt;font face=&quot;Helvetica&quot;&gt;Точка не принадлежит полигону&lt;/font&gt;&lt;/p&gt;" style="shape=stencil(tVTRboMwDPyavFYh2T5gYtt/pKlXotIkcrJ1/fuaGKQiBq0mQEjgu3B3Bhyh69SYCEJJb84g9LtQKmKwkBLdEdww9iK5vHBZDbVJEWxm8MegM/sWmEkZwwku7pB7CecbQJc7Vn8I+UZrulPXNnhPIi74NGLueBIzztOz8pfFevvrqIqkf4YM2IdkVKjP52V3r9sIVxvlHcsO6VfPu57wOHG11YdbTbj6v6yuCZn7uXW9N/Z0xPDtD3+G+XJta0MbkEq+Fi+htOyP5Wai6QZvQgw0dmO7PE4PRn/OmPCJd0FnGqZWA8KDN8G7yYLr7IJiPXEoKG99BbgB);whiteSpace=wrap;html=1;aspect=fixed;fontFamily=Times New Roman;fontSize=10;spacingBottom=4;" vertex="1" parent="1">
          <mxGeometry x="534" y="410" width="140" height="40" as="geometry" />
        </mxCell>
        <mxCell id="97a9B03GStSE_R5qGmRa-36" style="edgeStyle=orthogonalEdgeStyle;rounded=0;orthogonalLoop=1;jettySize=auto;html=1;exitX=0.5;exitY=1;exitDx=0;exitDy=0;entryX=0.5;entryY=0;entryDx=0;entryDy=0;" edge="1" parent="1" source="97a9B03GStSE_R5qGmRa-14" target="97a9B03GStSE_R5qGmRa-27">
          <mxGeometry relative="1" as="geometry" />
        </mxCell>
        <mxCell id="97a9B03GStSE_R5qGmRa-14" value="&lt;p style=&quot;line-height: 1&quot;&gt;&lt;font face=&quot;Helvetica&quot;&gt;Определение координаты Z точки из уравнения плоскости полигона&lt;/font&gt;&lt;/p&gt;" style="shape=stencil(tVTRboMwDPyavFYh2T5gYtt/pKlXotIkcrJ1/fuaGKQiBq0mQEjgu3B3Bhyh69SYCEJJb84g9LtQKmKwkBLdEdww9iK5vHBZDbVJEWxm8MegM/sWmEkZwwku7pB7CecbQJc7Vn8I+UZrulPXNnhPIi74NGLueBIzztOz8pfFevvrqIqkf4YM2IdkVKjP52V3r9sIVxvlHcsO6VfPu57wOHG11YdbTbj6v6yuCZn7uXW9N/Z0xPDtD3+G+XJta0MbkEq+Fi+htOyP5Wai6QZvQgw0dmO7PE4PRn/OmPCJd0FnGqZWA8KDN8G7yYLr7IJiPXEoKG99BbgB);whiteSpace=wrap;html=1;aspect=fixed;fontFamily=Times New Roman;fontSize=10;spacingBottom=4;" vertex="1" parent="1">
          <mxGeometry x="130" y="473" width="140" height="40" as="geometry" />
        </mxCell>
        <mxCell id="97a9B03GStSE_R5qGmRa-21" style="edgeStyle=orthogonalEdgeStyle;rounded=0;orthogonalLoop=1;jettySize=auto;html=1;exitX=0.5;exitY=1;exitDx=0;exitDy=0;entryX=0.5;entryY=0;entryDx=0;entryDy=0;" edge="1" parent="1" source="97a9B03GStSE_R5qGmRa-15" target="97a9B03GStSE_R5qGmRa-20">
          <mxGeometry relative="1" as="geometry" />
        </mxCell>
        <mxCell id="97a9B03GStSE_R5qGmRa-15" value="&lt;p style=&quot;line-height: 1&quot;&gt;&lt;font face=&quot;Helvetica&quot;&gt;Точка принадлежит полигону&lt;/font&gt;&lt;/p&gt;" style="shape=stencil(tVTRboMwDPyavFYh2T5gYtt/pKlXotIkcrJ1/fuaGKQiBq0mQEjgu3B3Bhyh69SYCEJJb84g9LtQKmKwkBLdEdww9iK5vHBZDbVJEWxm8MegM/sWmEkZwwku7pB7CecbQJc7Vn8I+UZrulPXNnhPIi74NGLueBIzztOz8pfFevvrqIqkf4YM2IdkVKjP52V3r9sIVxvlHcsO6VfPu57wOHG11YdbTbj6v6yuCZn7uXW9N/Z0xPDtD3+G+XJta0MbkEq+Fi+htOyP5Wai6QZvQgw0dmO7PE4PRn/OmPCJd0FnGqZWA8KDN8G7yYLr7IJiPXEoKG99BbgB);whiteSpace=wrap;html=1;aspect=fixed;fontFamily=Times New Roman;fontSize=10;spacingBottom=4;" vertex="1" parent="1">
          <mxGeometry x="310" y="380" width="140" height="40" as="geometry" />
        </mxCell>
        <mxCell id="97a9B03GStSE_R5qGmRa-18" value="нет" style="text;html=1;align=center;verticalAlign=middle;whiteSpace=wrap;rounded=0;" vertex="1" parent="1">
          <mxGeometry x="550" y="340" width="30" height="20" as="geometry" />
        </mxCell>
        <mxCell id="97a9B03GStSE_R5qGmRa-20" value="&lt;p style=&quot;line-height: 1&quot;&gt;&lt;font face=&quot;Helvetica&quot;&gt;Добавить точку в набор внутренних точек полигона&lt;/font&gt;&lt;/p&gt;" style="shape=stencil(tVTRboMwDPyavFYh2T5gYtt/pKlXotIkcrJ1/fuaGKQiBq0mQEjgu3B3Bhyh69SYCEJJb84g9LtQKmKwkBLdEdww9iK5vHBZDbVJEWxm8MegM/sWmEkZwwku7pB7CecbQJc7Vn8I+UZrulPXNnhPIi74NGLueBIzztOz8pfFevvrqIqkf4YM2IdkVKjP52V3r9sIVxvlHcsO6VfPu57wOHG11YdbTbj6v6yuCZn7uXW9N/Z0xPDtD3+G+XJta0MbkEq+Fi+htOyP5Wai6QZvQgw0dmO7PE4PRn/OmPCJd0FnGqZWA8KDN8G7yYLr7IJiPXEoKG99BbgB);whiteSpace=wrap;html=1;aspect=fixed;fontFamily=Times New Roman;fontSize=10;spacingBottom=4;" vertex="1" parent="1">
          <mxGeometry x="310" y="440" width="140" height="40" as="geometry" />
        </mxCell>
        <mxCell id="97a9B03GStSE_R5qGmRa-42" style="edgeStyle=orthogonalEdgeStyle;rounded=0;orthogonalLoop=1;jettySize=auto;html=1;exitX=0.5;exitY=1;exitDx=0;exitDy=0;exitPerimeter=0;entryX=0.5;entryY=0;entryDx=0;entryDy=0;" edge="1" parent="1" source="97a9B03GStSE_R5qGmRa-22" target="97a9B03GStSE_R5qGmRa-26">
          <mxGeometry relative="1" as="geometry" />
        </mxCell>
        <mxCell id="97a9B03GStSE_R5qGmRa-22" value="&lt;p style=&quot;line-height: 1&quot;&gt;&lt;font face=&quot;Helvetica&quot;&gt;Конец цикла по точкам XY проекции&lt;/font&gt;&lt;/p&gt;" style="strokeWidth=1;html=1;shape=stencil(rVTBUoMwEP2aXJmQtDN6dBCPvXjwnNJVMk2zTMBW/96FBS0itEYZZmDfwnt52d0IndWlqUAo6c0BhL4XSjnEKvc7eiO4ZGwlOTxxmA6xqSsoGgaPJlizdcCZugm4h5PdNT2F9SUE27RZnQt5R9+0t84K9J5ILPp6lDnLE5mxnv6Vb0wmkzXLvPcxRxUpHKCBMEK/rG0YEOohWim9TukxQmnsaNC9pPT0e6U0TimP2T35rVDJzZU7uIkwJpPbaLkZdzojZK5FdbY1xf4l4CvNy0+LfLbOFegwUMjPTkwoLftr2WRl2vGZJIb0AY8w20BLzAOBs/6M4HOs/49CrSM41LiIq5h1/J0ixkjhsIaFehI+KWmHzvQRdRAGuNBgfNTO9e6EoEP52O+ADw==);whiteSpace=wrap;fontSize=10;fontFamily=Times New Roman;spacingLeft=10;spacingRight=10;spacingBottom=4;aspect=fixed;" vertex="1" parent="1">
          <mxGeometry x="418" y="500" width="140" height="40" as="geometry" />
        </mxCell>
        <mxCell id="97a9B03GStSE_R5qGmRa-23" style="edgeStyle=orthogonalEdgeStyle;rounded=0;orthogonalLoop=1;jettySize=auto;html=1;endArrow=none;endFill=0;" edge="1" parent="1">
          <mxGeometry relative="1" as="geometry">
            <mxPoint x="604" y="450" as="sourcePoint" />
            <mxPoint x="488" y="486" as="targetPoint" />
            <Array as="points">
              <mxPoint x="604" y="486" />
              <mxPoint x="488" y="486" />
            </Array>
          </mxGeometry>
        </mxCell>
        <mxCell id="97a9B03GStSE_R5qGmRa-25" style="edgeStyle=orthogonalEdgeStyle;rounded=0;orthogonalLoop=1;jettySize=auto;html=1;entryX=0.5;entryY=0;entryDx=0;entryDy=0;entryPerimeter=0;" edge="1" parent="1" target="97a9B03GStSE_R5qGmRa-22">
          <mxGeometry relative="1" as="geometry">
            <mxPoint x="380" y="480" as="sourcePoint" />
            <mxPoint x="488.0000000000001" y="496" as="targetPoint" />
            <Array as="points">
              <mxPoint x="380" y="486" />
              <mxPoint x="488" y="486" />
            </Array>
          </mxGeometry>
        </mxCell>
        <mxCell id="97a9B03GStSE_R5qGmRa-26" value="&lt;p style=&quot;line-height: 1 ; font-size: 10px&quot;&gt;&lt;font face=&quot;Helvetica&quot;&gt;Конец&lt;/font&gt;&lt;/p&gt;" style="shape=stencil(vZXxboMgEMafhj9dUNwDLG57j9NelRTBIKv27YegWdHq1s3OmJD7Dn/3nZyRsKytoEGSUAk1EvZKkiTHkku7WrHySkp92PkwnmJoGyyMF8+gOeQCfaY1Wp2w4wczIrisUHMzZNkboS92z3CzrFBSWghXsg0yV3kLAy7ts7T3sLH8JYgay6/RoB5NepUk7z/HPj0/Bhw/yG+Indzv7nc/cOg4ftTB7QaOf49lmVXWhptlORSnUqsPebhp5siFKJRQ2oZ+dbVIwuh4bTfTwPDhLRJTulZn/OpydizpJntCgC5WCWOkZ1l9CWMBusTIgqKjgDJ4m22H2CzlPoKet5FWBoaXGlTbtiu4vOo4vm34jo7nhPQPPdN/6fmuU3bTuxgip65Mrp1ZpfGbkfa/hY2qqxtc6UUFp/o/mBM+AQ==);whiteSpace=wrap;html=1;aspect=fixed;fontFamily=Times New Roman;fontSize=10;spacingBottom=4;" vertex="1" parent="1">
          <mxGeometry x="418" y="560" width="140" height="40" as="geometry" />
        </mxCell>
        <mxCell id="97a9B03GStSE_R5qGmRa-27" value="А" style="ellipse;whiteSpace=wrap;html=1;aspect=fixed;" vertex="1" parent="1">
          <mxGeometry x="180" y="560" width="40" height="40" as="geometry" />
        </mxCell>
        <mxCell id="97a9B03GStSE_R5qGmRa-28" value="А" style="ellipse;whiteSpace=wrap;html=1;aspect=fixed;" vertex="1" parent="1">
          <mxGeometry x="468" y="40" width="40" height="40" as="geometry" />
        </mxCell>
        <mxCell id="97a9B03GStSE_R5qGmRa-37" style="edgeStyle=orthogonalEdgeStyle;rounded=0;orthogonalLoop=1;jettySize=auto;html=1;exitX=0.5;exitY=1;exitDx=0;exitDy=0;entryX=0.5;entryY=0;entryDx=0;entryDy=0;entryPerimeter=0;" edge="1" parent="1" source="97a9B03GStSE_R5qGmRa-28" target="97a9B03GStSE_R5qGmRa-6">
          <mxGeometry relative="1" as="geometry" />
        </mxCell>
        <mxCell id="97a9B03GStSE_R5qGmRa-40" style="edgeStyle=orthogonalEdgeStyle;rounded=0;orthogonalLoop=1;jettySize=auto;html=1;exitX=0.5;exitY=1;exitDx=0;exitDy=0;entryX=0.5;entryY=0;entryDx=0;entryDy=0;entryPerimeter=0;" edge="1" parent="1" source="97a9B03GStSE_R5qGmRa-8" target="97a9B03GStSE_R5qGmRa-11">
          <mxGeometry relative="1" as="geometry" />
        </mxCell>
      </root>
    </mxGraphModel>
  </diagram>
  <diagram id="WzgTVrE47uSvjfQxgCS2" name="Алгоритм Z-буфера">
    <mxGraphModel dx="875" dy="558" grid="1" gridSize="10" guides="1" tooltips="1" connect="1" arrows="1" fold="1" page="1" pageScale="1" pageWidth="827" pageHeight="1169" math="0" shadow="0">
      <root>
        <mxCell id="0" />
        <mxCell id="1" parent="0" />
        <mxCell id="-Re_Ul4PXeO8nZpJJ8m9-26" style="edgeStyle=orthogonalEdgeStyle;rounded=0;orthogonalLoop=1;jettySize=auto;html=1;exitX=0.5;exitY=1;exitDx=0;exitDy=0;entryX=0.5;entryY=0;entryDx=0;entryDy=0;" edge="1" parent="1" source="-Re_Ul4PXeO8nZpJJ8m9-1" target="-Re_Ul4PXeO8nZpJJ8m9-14">
          <mxGeometry relative="1" as="geometry" />
        </mxCell>
        <mxCell id="-Re_Ul4PXeO8nZpJJ8m9-1" value="&lt;p style=&quot;line-height: 1 ; font-size: 10px&quot;&gt;&lt;font face=&quot;Helvetica&quot;&gt;Начало&lt;/font&gt;&lt;/p&gt;" style="shape=stencil(vZXxboMgEMafhj9dUNwDLG57j9NelRTBIKv27YegWdHq1s3OmJD7Dn/3nZyRsKytoEGSUAk1EvZKkiTHkku7WrHySkp92PkwnmJoGyyMF8+gOeQCfaY1Wp2w4wczIrisUHMzZNkboS92z3CzrFBSWghXsg0yV3kLAy7ts7T3sLH8JYgay6/RoB5NepUk7z/HPj0/Bhw/yG+Indzv7nc/cOg4ftTB7QaOf49lmVXWhptlORSnUqsPebhp5siFKJRQ2oZ+dbVIwuh4bTfTwPDhLRJTulZn/OpydizpJntCgC5WCWOkZ1l9CWMBusTIgqKjgDJ4m22H2CzlPoKet5FWBoaXGlTbtiu4vOo4vm34jo7nhPQPPdN/6fmuU3bTuxgip65Mrp1ZpfGbkfa/hY2qqxtc6UUFp/o/mBM+AQ==);whiteSpace=wrap;html=1;aspect=fixed;fontFamily=Times New Roman;fontSize=10;spacingBottom=4;" vertex="1" parent="1">
          <mxGeometry x="90" y="40" width="140" height="40" as="geometry" />
        </mxCell>
        <mxCell id="-Re_Ul4PXeO8nZpJJ8m9-30" style="edgeStyle=orthogonalEdgeStyle;rounded=0;orthogonalLoop=1;jettySize=auto;html=1;exitX=0.5;exitY=1;exitDx=0;exitDy=0;exitPerimeter=0;entryX=0.5;entryY=0;entryDx=0;entryDy=0;" edge="1" parent="1" source="-Re_Ul4PXeO8nZpJJ8m9-2" target="-Re_Ul4PXeO8nZpJJ8m9-3">
          <mxGeometry relative="1" as="geometry" />
        </mxCell>
        <mxCell id="-Re_Ul4PXeO8nZpJJ8m9-2" value="&lt;p style=&quot;line-height: 1&quot;&gt;&lt;font face=&quot;Helvetica&quot;&gt;Цикл по всем моделям&lt;/font&gt;&lt;/p&gt;" style="strokeWidth=1;html=1;shape=stencil(rVXBUoMwFPyaXJmQ1EOPivXoxYPnlD5LpiEvE7C1f2/gwQgCbU1lmIG3C7t5ZBOYzKpCOWCCW1UCk89MCIPonmCvbbgPREHoilN5ojLta1U5yGsCj8prtTVATFV7PMBJ7+pOQtsCvK4bVm4YfwzPNKfMcrQ2iGi01YgZ8EFMaRve5V8kxpMHsjl3NVUuOJRQgx+hP829EsDES7RTepvTW4TTuKPe95rT+9+d0jinTczX478mKknXN85VRGM8WUfbLXQns4AsRVRmW5Uf9h4/7W52kB/amBwN+lDStTVjQvLuuNykU83ymRA9XeIRBtM6uybmpXsFo+1QQdwv0W8N5/Gg7tFYRYzjvxWi+oj4mrnBCi4kIuCTULToQhJDBtHDlYjSZr2U/olAi9KvowW+AQ==);whiteSpace=wrap;fontSize=10;fontFamily=Times New Roman;spacingLeft=10;spacingRight=10;spacingBottom=4;aspect=fixed;" vertex="1" parent="1">
          <mxGeometry x="90" y="220" width="140" height="40" as="geometry" />
        </mxCell>
        <mxCell id="-Re_Ul4PXeO8nZpJJ8m9-3" value="&lt;p style=&quot;line-height: 1&quot;&gt;&lt;font face=&quot;Helvetica&quot;&gt;Определение всех видимых полигонов модели&lt;/font&gt;&lt;/p&gt;" style="shape=stencil(tVTRboMwDPyavFYh2T5gYtt/pKlXotIkcrJ1/fuaGKQiBq0mQEjgu3B3Bhyh69SYCEJJb84g9LtQKmKwkBLdEdww9iK5vHBZDbVJEWxm8MegM/sWmEkZwwku7pB7CecbQJc7Vn8I+UZrulPXNnhPIi74NGLueBIzztOz8pfFevvrqIqkf4YM2IdkVKjP52V3r9sIVxvlHcsO6VfPu57wOHG11YdbTbj6v6yuCZn7uXW9N/Z0xPDtD3+G+XJta0MbkEq+Fi+htOyP5Wai6QZvQgw0dmO7PE4PRn/OmPCJd0FnGqZWA8KDN8G7yYLr7IJiPXEoKG99BbgB);whiteSpace=wrap;html=1;aspect=fixed;fontFamily=Times New Roman;fontSize=10;spacingBottom=4;" vertex="1" parent="1">
          <mxGeometry x="90" y="280" width="140" height="40" as="geometry" />
        </mxCell>
        <mxCell id="-Re_Ul4PXeO8nZpJJ8m9-32" style="edgeStyle=orthogonalEdgeStyle;rounded=0;orthogonalLoop=1;jettySize=auto;html=1;exitX=0.5;exitY=1;exitDx=0;exitDy=0;exitPerimeter=0;entryX=0.5;entryY=0;entryDx=0;entryDy=0;" edge="1" parent="1" source="-Re_Ul4PXeO8nZpJJ8m9-4" target="-Re_Ul4PXeO8nZpJJ8m9-7">
          <mxGeometry relative="1" as="geometry" />
        </mxCell>
        <mxCell id="-Re_Ul4PXeO8nZpJJ8m9-4" value="&lt;p style=&quot;line-height: 1&quot;&gt;&lt;font face=&quot;Helvetica&quot;&gt;Цикл по всем видимым полигонам модели&lt;/font&gt;&lt;/p&gt;" style="strokeWidth=1;html=1;shape=stencil(rVXBUoMwFPyaXJmQ1EOPivXoxYPnlD5LpiEvE7C1f2/gwQgCbU1lmIG3C7t5ZBOYzKpCOWCCW1UCk89MCIPonmCvbbgPREHoilN5ojLta1U5yGsCj8prtTVATFV7PMBJ7+pOQtsCvK4bVm4YfwzPNKfMcrQ2iGi01YgZ8EFMaRve5V8kxpMHsjl3NVUuOJRQgx+hP829EsDES7RTepvTW4TTuKPe95rT+9+d0jinTczX478mKknXN85VRGM8WUfbLXQns4AsRVRmW5Uf9h4/7W52kB/amBwN+lDStTVjQvLuuNykU83ymRA9XeIRBtM6uybmpXsFo+1QQdwv0W8N5/Gg7tFYRYzjvxWi+oj4mrnBCi4kIuCTULToQhJDBtHDlYjSZr2U/olAi9KvowW+AQ==);whiteSpace=wrap;fontSize=10;fontFamily=Times New Roman;spacingLeft=10;spacingRight=10;spacingBottom=4;aspect=fixed;" vertex="1" parent="1">
          <mxGeometry x="90" y="340" width="140" height="40" as="geometry" />
        </mxCell>
        <mxCell id="-Re_Ul4PXeO8nZpJJ8m9-7" value="&lt;font face=&quot;Helvetica&quot;&gt;Определение множества точек полигона&lt;/font&gt;" style="shape=stencil(tVVRboQgED0Nvw1Ce4DGtvdg2Wkli0CA7ra37wiSrFHcdqvGxMx78uYN4yDhbeiEA8KoET0Q/kIYcx6ctxJCwACZLsOPNIeXHDYlFsGBjBk8C6/EQUNmQvT2BBd1jKOEMh14FQeWvxL6jO8MN2+lNQZFlDVhwlzxKCaUwbX0K4uN6b8nkUP9HiL40WRGCXv7vezD0z7CzU5+p7LF/eZ+txOeOm72atxmws39srxFpPZx8/Yg5OnD209zXDTzrrSWVluPYX6mXIRxOl7rxTgxDN6MKLQfxnZ9nG6Mfi0x4rPcCa0UjKVaDzd2Ip8m95fb2zNcNXWx3mXpoqCVqSus70nFBP+/C/4XG8utKVx1h9OyWYsSmn8fCfgB);whiteSpace=wrap;html=1;aspect=fixed;fontFamily=Times New Roman;fontSize=10;spacingBottom=4;rounded=0;shadow=0;sketch=0;spacingLeft=10;spacingRight=10;" vertex="1" parent="1">
          <mxGeometry x="90" y="400" width="140" height="40" as="geometry" />
        </mxCell>
        <mxCell id="-Re_Ul4PXeO8nZpJJ8m9-34" style="edgeStyle=orthogonalEdgeStyle;rounded=0;orthogonalLoop=1;jettySize=auto;html=1;exitX=0.5;exitY=1;exitDx=0;exitDy=0;exitPerimeter=0;entryX=0.5;entryY=0;entryDx=0;entryDy=0;" edge="1" parent="1" source="-Re_Ul4PXeO8nZpJJ8m9-8" target="-Re_Ul4PXeO8nZpJJ8m9-11">
          <mxGeometry relative="1" as="geometry" />
        </mxCell>
        <mxCell id="-Re_Ul4PXeO8nZpJJ8m9-8" value="&lt;p style=&quot;line-height: 1&quot;&gt;&lt;font face=&quot;Helvetica&quot;&gt;Цикл по всем точкам полигона&lt;/font&gt;&lt;/p&gt;" style="strokeWidth=1;html=1;shape=stencil(rVXBUoMwFPyaXJmQ1EOPivXoxYPnlD5LpiEvE7C1f2/gwQgCbU1lmIG3C7t5ZBOYzKpCOWCCW1UCk89MCIPonmCvbbgPREHoilN5ojLta1U5yGsCj8prtTVATFV7PMBJ7+pOQtsCvK4bVm4YfwzPNKfMcrQ2iGi01YgZ8EFMaRve5V8kxpMHsjl3NVUuOJRQgx+hP829EsDES7RTepvTW4TTuKPe95rT+9+d0jinTczX478mKknXN85VRGM8WUfbLXQns4AsRVRmW5Uf9h4/7W52kB/amBwN+lDStTVjQvLuuNykU83ymRA9XeIRBtM6uybmpXsFo+1QQdwv0W8N5/Gg7tFYRYzjvxWi+oj4mrnBCi4kIuCTULToQhJDBtHDlYjSZr2U/olAi9KvowW+AQ==);whiteSpace=wrap;fontSize=10;fontFamily=Times New Roman;spacingLeft=10;spacingRight=10;spacingBottom=4;aspect=fixed;" vertex="1" parent="1">
          <mxGeometry x="90" y="460" width="140" height="40" as="geometry" />
        </mxCell>
        <mxCell id="-Re_Ul4PXeO8nZpJJ8m9-36" style="edgeStyle=orthogonalEdgeStyle;rounded=0;orthogonalLoop=1;jettySize=auto;html=1;exitX=0.5;exitY=1;exitDx=0;exitDy=0;entryX=0.5;entryY=0;entryDx=0;entryDy=0;" edge="1" parent="1" source="-Re_Ul4PXeO8nZpJJ8m9-10" target="-Re_Ul4PXeO8nZpJJ8m9-19">
          <mxGeometry relative="1" as="geometry" />
        </mxCell>
        <mxCell id="-Re_Ul4PXeO8nZpJJ8m9-10" value="&lt;font face=&quot;Helvetica&quot;&gt;Перевести точку в пространство камеры, отсечения и экрана&lt;/font&gt;" style="shape=stencil(tVVRboQgED0Nvw1Ce4DGtvdg2Wkli0CA7ra37wiSrFHcdqvGxMx78uYN4yDhbeiEA8KoET0Q/kIYcx6ctxJCwACZLsOPNIeXHDYlFsGBjBk8C6/EQUNmQvT2BBd1jKOEMh14FQeWvxL6jO8MN2+lNQZFlDVhwlzxKCaUwbX0K4uN6b8nkUP9HiL40WRGCXv7vezD0z7CzU5+p7LF/eZ+txOeOm72atxmws39srxFpPZx8/Yg5OnD209zXDTzrrSWVluPYX6mXIRxOl7rxTgxDN6MKLQfxnZ9nG6Mfi0x4rPcCa0UjKVaDzd2Ip8m95fb2zNcNXWx3mXpoqCVqSus70nFBP+/C/4XG8utKVx1h9OyWYsSmn8fCfgB);whiteSpace=wrap;html=1;aspect=fixed;fontFamily=Times New Roman;fontSize=10;spacingBottom=4;rounded=0;shadow=0;sketch=0;spacingLeft=10;spacingRight=10;" vertex="1" parent="1">
          <mxGeometry x="270" y="100" width="140" height="40" as="geometry" />
        </mxCell>
        <mxCell id="-Re_Ul4PXeO8nZpJJ8m9-11" value="А" style="ellipse;whiteSpace=wrap;html=1;aspect=fixed;" vertex="1" parent="1">
          <mxGeometry x="140" y="520" width="40" height="40" as="geometry" />
        </mxCell>
        <mxCell id="-Re_Ul4PXeO8nZpJJ8m9-12" value="Б" style="ellipse;whiteSpace=wrap;html=1;aspect=fixed;" vertex="1" parent="1">
          <mxGeometry x="680" y="40" width="40" height="40" as="geometry" />
        </mxCell>
        <mxCell id="-Re_Ul4PXeO8nZpJJ8m9-27" style="edgeStyle=orthogonalEdgeStyle;rounded=0;orthogonalLoop=1;jettySize=auto;html=1;exitX=0.5;exitY=1;exitDx=0;exitDy=0;entryX=0.5;entryY=0;entryDx=0;entryDy=0;" edge="1" parent="1" source="-Re_Ul4PXeO8nZpJJ8m9-14" target="-Re_Ul4PXeO8nZpJJ8m9-15">
          <mxGeometry relative="1" as="geometry" />
        </mxCell>
        <mxCell id="-Re_Ul4PXeO8nZpJJ8m9-14" value="&lt;p style=&quot;line-height: 1&quot;&gt;&lt;font face=&quot;Helvetica&quot;&gt;Заполнение буфера кадра цветом фона&lt;/font&gt;&lt;/p&gt;" style="shape=stencil(tVTRboMwDPyavFYh2T5gYtt/pKlXotIkcrJ1/fuaGKQiBq0mQEjgu3B3Bhyh69SYCEJJb84g9LtQKmKwkBLdEdww9iK5vHBZDbVJEWxm8MegM/sWmEkZwwku7pB7CecbQJc7Vn8I+UZrulPXNnhPIi74NGLueBIzztOz8pfFevvrqIqkf4YM2IdkVKjP52V3r9sIVxvlHcsO6VfPu57wOHG11YdbTbj6v6yuCZn7uXW9N/Z0xPDtD3+G+XJta0MbkEq+Fi+htOyP5Wai6QZvQgw0dmO7PE4PRn/OmPCJd0FnGqZWA8KDN8G7yYLr7IJiPXEoKG99BbgB);whiteSpace=wrap;html=1;aspect=fixed;fontFamily=Times New Roman;fontSize=10;spacingBottom=4;" vertex="1" parent="1">
          <mxGeometry x="90" y="100" width="140" height="40" as="geometry" />
        </mxCell>
        <mxCell id="-Re_Ul4PXeO8nZpJJ8m9-15" value="&lt;p style=&quot;line-height: 1&quot;&gt;&lt;font face=&quot;Helvetica&quot;&gt;Заполнение Z-буфера минимальным значением Z&lt;/font&gt;&lt;/p&gt;" style="shape=stencil(tVTRboMwDPyavFYh2T5gYtt/pKlXotIkcrJ1/fuaGKQiBq0mQEjgu3B3Bhyh69SYCEJJb84g9LtQKmKwkBLdEdww9iK5vHBZDbVJEWxm8MegM/sWmEkZwwku7pB7CecbQJc7Vn8I+UZrulPXNnhPIi74NGLueBIzztOz8pfFevvrqIqkf4YM2IdkVKjP52V3r9sIVxvlHcsO6VfPu57wOHG11YdbTbj6v6yuCZn7uXW9N/Z0xPDtD3+G+XJta0MbkEq+Fi+htOyP5Wai6QZvQgw0dmO7PE4PRn/OmPCJd0FnGqZWA8KDN8G7yYLr7IJiPXEoKG99BbgB);whiteSpace=wrap;html=1;aspect=fixed;fontFamily=Times New Roman;fontSize=10;spacingBottom=4;" vertex="1" parent="1">
          <mxGeometry x="90" y="160" width="140" height="40" as="geometry" />
        </mxCell>
        <mxCell id="-Re_Ul4PXeO8nZpJJ8m9-35" style="edgeStyle=orthogonalEdgeStyle;rounded=0;orthogonalLoop=1;jettySize=auto;html=1;exitX=0.5;exitY=1;exitDx=0;exitDy=0;entryX=0.5;entryY=0;entryDx=0;entryDy=0;" edge="1" parent="1" source="-Re_Ul4PXeO8nZpJJ8m9-17" target="-Re_Ul4PXeO8nZpJJ8m9-10">
          <mxGeometry relative="1" as="geometry" />
        </mxCell>
        <mxCell id="-Re_Ul4PXeO8nZpJJ8m9-17" value="А" style="ellipse;whiteSpace=wrap;html=1;aspect=fixed;" vertex="1" parent="1">
          <mxGeometry x="320" y="40" width="40" height="40" as="geometry" />
        </mxCell>
        <mxCell id="-Re_Ul4PXeO8nZpJJ8m9-23" style="edgeStyle=orthogonalEdgeStyle;rounded=0;orthogonalLoop=1;jettySize=auto;html=1;exitX=1;exitY=0.5;exitDx=0;exitDy=0;entryX=0.5;entryY=0;entryDx=0;entryDy=0;" edge="1" parent="1" source="-Re_Ul4PXeO8nZpJJ8m9-18" target="-Re_Ul4PXeO8nZpJJ8m9-22">
          <mxGeometry relative="1" as="geometry" />
        </mxCell>
        <mxCell id="-Re_Ul4PXeO8nZpJJ8m9-39" style="edgeStyle=orthogonalEdgeStyle;rounded=0;orthogonalLoop=1;jettySize=auto;html=1;exitX=0;exitY=0.5;exitDx=0;exitDy=0;endArrow=none;endFill=0;" edge="1" parent="1" source="-Re_Ul4PXeO8nZpJJ8m9-18">
          <mxGeometry relative="1" as="geometry">
            <mxPoint x="340" y="430" as="targetPoint" />
            <Array as="points">
              <mxPoint x="340" y="240" />
              <mxPoint x="340" y="400" />
              <mxPoint x="440" y="400" />
              <mxPoint x="440" y="430" />
              <mxPoint x="340" y="430" />
            </Array>
          </mxGeometry>
        </mxCell>
        <mxCell id="-Re_Ul4PXeO8nZpJJ8m9-18" value="&lt;p style=&quot;line-height: 1; font-size: 8px;&quot;&gt;&lt;font face=&quot;Helvetica&quot; style=&quot;font-size: 8px;&quot;&gt;Глубина &lt;br&gt;точки в пространстве камеры меньше значения в Z-буфере&lt;/font&gt;&lt;/p&gt;" style="shape=stencil(tZTdboQgEIWfhtsGYZu9bmz7HixOK1kEA3S3ffsdAdu1/rQxakx0zuA3B0YgvPS1aIEwakQDhD8TxiqQyitr8BX1OokHmsJrCos+Fr4FGZJ4EU6Jk4aU8cHZM1xVFTJCmRqcCl2WvxD6hGO6m5fSGoMQLOkHmbs8woQy+C39TLBc/msQtchvIIDLJpNK2Ov/sQ+P+4CLnfwOsb37zf1uBx46LvZq3GbgYj2Wl6jM/dy8PAl5fnf2w1STZt6U1tJq6zBMz1iLME7ztTyZVnQbb5To0429wM8sj5P7aRrdE7Qyd4TvEyEj1jB+uTisQKwxIbX1sLCSqI8WM6ozHcTeWQd/tDYdjwtVZwfE0qMKUU2HeRRu);whiteSpace=wrap;html=1;aspect=fixed;fontFamily=Times New Roman;fontSize=10;spacingBottom=4;rounded=0;shadow=0;sketch=0;spacingLeft=20;spacingRight=20;" vertex="1" parent="1">
          <mxGeometry x="370" y="220" width="140" height="40" as="geometry" />
        </mxCell>
        <mxCell id="-Re_Ul4PXeO8nZpJJ8m9-20" style="edgeStyle=orthogonalEdgeStyle;rounded=0;orthogonalLoop=1;jettySize=auto;html=1;exitX=1;exitY=0.5;exitDx=0;exitDy=0;entryX=0.5;entryY=0;entryDx=0;entryDy=0;" edge="1" parent="1" source="-Re_Ul4PXeO8nZpJJ8m9-19" target="-Re_Ul4PXeO8nZpJJ8m9-18">
          <mxGeometry relative="1" as="geometry" />
        </mxCell>
        <mxCell id="-Re_Ul4PXeO8nZpJJ8m9-40" style="edgeStyle=orthogonalEdgeStyle;rounded=0;orthogonalLoop=1;jettySize=auto;html=1;exitX=0;exitY=0.5;exitDx=0;exitDy=0;" edge="1" parent="1" source="-Re_Ul4PXeO8nZpJJ8m9-19">
          <mxGeometry relative="1" as="geometry">
            <mxPoint x="340" y="460.0000000000001" as="targetPoint" />
            <Array as="points">
              <mxPoint x="250" y="180" />
              <mxPoint x="250" y="430" />
              <mxPoint x="340" y="430" />
            </Array>
          </mxGeometry>
        </mxCell>
        <mxCell id="-Re_Ul4PXeO8nZpJJ8m9-19" value="&lt;p style=&quot;line-height: 1&quot;&gt;&lt;font face=&quot;Helvetica&quot;&gt;Точка отсечена&lt;/font&gt;&lt;/p&gt;" style="shape=stencil(tZTdboQgEIWfhtsGYZu9bmz7HixOK1kEA3S3ffsdAdu1/rQxakx0zuA3B0YgvPS1aIEwakQDhD8TxiqQyitr8BX1OokHmsJrCos+Fr4FGZJ4EU6Jk4aU8cHZM1xVFTJCmRqcCl2WvxD6hGO6m5fSGoMQLOkHmbs8woQy+C39TLBc/msQtchvIIDLJpNK2Ov/sQ+P+4CLnfwOsb37zf1uBx46LvZq3GbgYj2Wl6jM/dy8PAl5fnf2w1STZt6U1tJq6zBMz1iLME7ztTyZVnQbb5To0429wM8sj5P7aRrdE7Qyd4TvEyEj1jB+uTisQKwxIbX1sLCSqI8WM6ozHcTeWQd/tDYdjwtVZwfE0qMKUU2HeRRu);whiteSpace=wrap;html=1;aspect=fixed;fontFamily=Times New Roman;fontSize=10;spacingBottom=4;rounded=0;shadow=0;sketch=0;spacingLeft=20;spacingRight=20;" vertex="1" parent="1">
          <mxGeometry x="270" y="160" width="140" height="40" as="geometry" />
        </mxCell>
        <mxCell id="-Re_Ul4PXeO8nZpJJ8m9-25" style="edgeStyle=orthogonalEdgeStyle;rounded=0;orthogonalLoop=1;jettySize=auto;html=1;exitX=0.5;exitY=1;exitDx=0;exitDy=0;entryX=0.5;entryY=0;entryDx=0;entryDy=0;" edge="1" parent="1" source="-Re_Ul4PXeO8nZpJJ8m9-22" target="-Re_Ul4PXeO8nZpJJ8m9-24">
          <mxGeometry relative="1" as="geometry" />
        </mxCell>
        <mxCell id="-Re_Ul4PXeO8nZpJJ8m9-22" value="&lt;p style=&quot;line-height: 1&quot;&gt;&lt;font face=&quot;Helvetica&quot;&gt;Поместить новое значение глубины в Z-буфер&lt;/font&gt;&lt;/p&gt;" style="shape=stencil(tVTRboMwDPyavFYh2T5gYtt/pKlXotIkcrJ1/fuaGKQiBq0mQEjgu3B3Bhyh69SYCEJJb84g9LtQKmKwkBLdEdww9iK5vHBZDbVJEWxm8MegM/sWmEkZwwku7pB7CecbQJc7Vn8I+UZrulPXNnhPIi74NGLueBIzztOz8pfFevvrqIqkf4YM2IdkVKjP52V3r9sIVxvlHcsO6VfPu57wOHG11YdbTbj6v6yuCZn7uXW9N/Z0xPDtD3+G+XJta0MbkEq+Fi+htOyP5Wai6QZvQgw0dmO7PE4PRn/OmPCJd0FnGqZWA8KDN8G7yYLr7IJiPXEoKG99BbgB);whiteSpace=wrap;html=1;aspect=fixed;fontFamily=Times New Roman;fontSize=10;spacingBottom=4;" vertex="1" parent="1">
          <mxGeometry x="470" y="280" width="140" height="40" as="geometry" />
        </mxCell>
        <mxCell id="-Re_Ul4PXeO8nZpJJ8m9-38" style="edgeStyle=orthogonalEdgeStyle;rounded=0;orthogonalLoop=1;jettySize=auto;html=1;exitX=0.5;exitY=1;exitDx=0;exitDy=0;endArrow=none;endFill=0;" edge="1" parent="1" source="-Re_Ul4PXeO8nZpJJ8m9-24">
          <mxGeometry relative="1" as="geometry">
            <mxPoint x="440" y="400" as="targetPoint" />
            <Array as="points">
              <mxPoint x="540" y="400" />
              <mxPoint x="440" y="400" />
            </Array>
          </mxGeometry>
        </mxCell>
        <mxCell id="-Re_Ul4PXeO8nZpJJ8m9-24" value="&lt;p style=&quot;line-height: 1&quot;&gt;&lt;font face=&quot;Helvetica&quot;&gt;Поместить цвет в буфер кадра&lt;/font&gt;&lt;/p&gt;" style="shape=stencil(tVTRboMwDPyavFYh2T5gYtt/pKlXotIkcrJ1/fuaGKQiBq0mQEjgu3B3Bhyh69SYCEJJb84g9LtQKmKwkBLdEdww9iK5vHBZDbVJEWxm8MegM/sWmEkZwwku7pB7CecbQJc7Vn8I+UZrulPXNnhPIi74NGLueBIzztOz8pfFevvrqIqkf4YM2IdkVKjP52V3r9sIVxvlHcsO6VfPu57wOHG11YdbTbj6v6yuCZn7uXW9N/Z0xPDtD3+G+XJta0MbkEq+Fi+htOyP5Wai6QZvQgw0dmO7PE4PRn/OmPCJd0FnGqZWA8KDN8G7yYLr7IJiPXEoKG99BbgB);whiteSpace=wrap;html=1;aspect=fixed;fontFamily=Times New Roman;fontSize=10;spacingBottom=4;" vertex="1" parent="1">
          <mxGeometry x="470" y="340" width="140" height="40" as="geometry" />
        </mxCell>
        <mxCell id="-Re_Ul4PXeO8nZpJJ8m9-29" style="edgeStyle=orthogonalEdgeStyle;rounded=0;orthogonalLoop=1;jettySize=auto;html=1;exitX=0.5;exitY=1;exitDx=0;exitDy=0;entryX=0.5;entryY=0;entryDx=0;entryDy=0;entryPerimeter=0;" edge="1" parent="1" source="-Re_Ul4PXeO8nZpJJ8m9-15" target="-Re_Ul4PXeO8nZpJJ8m9-2">
          <mxGeometry relative="1" as="geometry" />
        </mxCell>
        <mxCell id="-Re_Ul4PXeO8nZpJJ8m9-31" style="edgeStyle=orthogonalEdgeStyle;rounded=0;orthogonalLoop=1;jettySize=auto;html=1;exitX=0.5;exitY=1;exitDx=0;exitDy=0;entryX=0.5;entryY=0;entryDx=0;entryDy=0;entryPerimeter=0;" edge="1" parent="1" source="-Re_Ul4PXeO8nZpJJ8m9-3" target="-Re_Ul4PXeO8nZpJJ8m9-4">
          <mxGeometry relative="1" as="geometry" />
        </mxCell>
        <mxCell id="-Re_Ul4PXeO8nZpJJ8m9-33" style="edgeStyle=orthogonalEdgeStyle;rounded=0;orthogonalLoop=1;jettySize=auto;html=1;exitX=0.5;exitY=1;exitDx=0;exitDy=0;entryX=0.5;entryY=0;entryDx=0;entryDy=0;entryPerimeter=0;" edge="1" parent="1" source="-Re_Ul4PXeO8nZpJJ8m9-7" target="-Re_Ul4PXeO8nZpJJ8m9-8">
          <mxGeometry relative="1" as="geometry" />
        </mxCell>
        <mxCell id="-Re_Ul4PXeO8nZpJJ8m9-45" style="edgeStyle=orthogonalEdgeStyle;rounded=0;orthogonalLoop=1;jettySize=auto;html=1;exitX=0.5;exitY=1;exitDx=0;exitDy=0;exitPerimeter=0;entryX=0.5;entryY=0;entryDx=0;entryDy=0;" edge="1" parent="1" source="-Re_Ul4PXeO8nZpJJ8m9-41" target="-Re_Ul4PXeO8nZpJJ8m9-44">
          <mxGeometry relative="1" as="geometry" />
        </mxCell>
        <mxCell id="-Re_Ul4PXeO8nZpJJ8m9-41" value="&lt;p style=&quot;line-height: 1&quot;&gt;&lt;font face=&quot;Helvetica&quot;&gt;Конец цикла по всем точкам полигона&lt;/font&gt;&lt;/p&gt;" style="strokeWidth=1;html=1;shape=stencil(rVTBUoMwEP2aXJmQtDN6dBCPvXjwnNJVMk2zTMBW/96FBS0itEYZZmDfwnt52d0IndWlqUAo6c0BhL4XSjnEKvc7eiO4ZGwlOTxxmA6xqSsoGgaPJlizdcCZugm4h5PdNT2F9SUE27RZnQt5R9+0t84K9J5ILPp6lDnLE5mxnv6Vb0wmkzXLvPcxRxUpHKCBMEK/rG0YEOohWim9TukxQmnsaNC9pPT0e6U0TimP2T35rVDJzZU7uIkwJpPbaLkZdzojZK5FdbY1xf4l4CvNy0+LfLbOFegwUMjPTkwoLftr2WRl2vGZJIb0AY8w20BLzAOBs/6M4HOs/49CrSM41LiIq5h1/J0ixkjhsIaFehI+KWmHzvQRdRAGuNBgfNTO9e6EoEP52O+ADw==);whiteSpace=wrap;fontSize=10;fontFamily=Times New Roman;spacingLeft=10;spacingRight=10;spacingBottom=4;aspect=fixed;" vertex="1" parent="1">
          <mxGeometry x="270" y="460" width="140" height="40" as="geometry" />
        </mxCell>
        <mxCell id="-Re_Ul4PXeO8nZpJJ8m9-42" value="нет" style="text;html=1;align=center;verticalAlign=middle;whiteSpace=wrap;rounded=0;" vertex="1" parent="1">
          <mxGeometry x="400" y="160" width="40" height="20" as="geometry" />
        </mxCell>
        <mxCell id="-Re_Ul4PXeO8nZpJJ8m9-43" value="нет" style="text;html=1;align=center;verticalAlign=middle;whiteSpace=wrap;rounded=0;" vertex="1" parent="1">
          <mxGeometry x="500" y="220" width="40" height="20" as="geometry" />
        </mxCell>
        <mxCell id="-Re_Ul4PXeO8nZpJJ8m9-44" value="Б" style="ellipse;whiteSpace=wrap;html=1;aspect=fixed;" vertex="1" parent="1">
          <mxGeometry x="320" y="520" width="40" height="40" as="geometry" />
        </mxCell>
        <mxCell id="-Re_Ul4PXeO8nZpJJ8m9-46" value="&lt;p style=&quot;line-height: 1&quot;&gt;&lt;font face=&quot;Helvetica&quot;&gt;Конец цикла по всем видимым полигонам модели&lt;/font&gt;&lt;/p&gt;" style="strokeWidth=1;html=1;shape=stencil(rVTBUoMwEP2aXJmQtDN6dBCPvXjwnNJVMk2zTMBW/96FBS0itEYZZmDfwnt52d0IndWlqUAo6c0BhL4XSjnEKvc7eiO4ZGwlOTxxmA6xqSsoGgaPJlizdcCZugm4h5PdNT2F9SUE27RZnQt5R9+0t84K9J5ILPp6lDnLE5mxnv6Vb0wmkzXLvPcxRxUpHKCBMEK/rG0YEOohWim9TukxQmnsaNC9pPT0e6U0TimP2T35rVDJzZU7uIkwJpPbaLkZdzojZK5FdbY1xf4l4CvNy0+LfLbOFegwUMjPTkwoLftr2WRl2vGZJIb0AY8w20BLzAOBs/6M4HOs/49CrSM41LiIq5h1/J0ixkjhsIaFehI+KWmHzvQRdRAGuNBgfNTO9e6EoEP52O+ADw==);whiteSpace=wrap;fontSize=10;fontFamily=Times New Roman;spacingLeft=10;spacingRight=10;spacingBottom=4;aspect=fixed;" vertex="1" parent="1">
          <mxGeometry x="630" y="100" width="140" height="40" as="geometry" />
        </mxCell>
        <mxCell id="-Re_Ul4PXeO8nZpJJ8m9-53" style="edgeStyle=orthogonalEdgeStyle;rounded=0;orthogonalLoop=1;jettySize=auto;html=1;exitX=0.5;exitY=1;exitDx=0;exitDy=0;exitPerimeter=0;entryX=0.5;entryY=0;entryDx=0;entryDy=0;" edge="1" parent="1" source="-Re_Ul4PXeO8nZpJJ8m9-47" target="-Re_Ul4PXeO8nZpJJ8m9-50">
          <mxGeometry relative="1" as="geometry" />
        </mxCell>
        <mxCell id="-Re_Ul4PXeO8nZpJJ8m9-47" value="&lt;p style=&quot;line-height: 1&quot;&gt;&lt;font face=&quot;Helvetica&quot;&gt;Конец цикла по всем моделям&lt;/font&gt;&lt;/p&gt;" style="strokeWidth=1;html=1;shape=stencil(rVTBUoMwEP2aXJmQtDN6dBCPvXjwnNJVMk2zTMBW/96FBS0itEYZZmDfwnt52d0IndWlqUAo6c0BhL4XSjnEKvc7eiO4ZGwlOTxxmA6xqSsoGgaPJlizdcCZugm4h5PdNT2F9SUE27RZnQt5R9+0t84K9J5ILPp6lDnLE5mxnv6Vb0wmkzXLvPcxRxUpHKCBMEK/rG0YEOohWim9TukxQmnsaNC9pPT0e6U0TimP2T35rVDJzZU7uIkwJpPbaLkZdzojZK5FdbY1xf4l4CvNy0+LfLbOFegwUMjPTkwoLftr2WRl2vGZJIb0AY8w20BLzAOBs/6M4HOs/49CrSM41LiIq5h1/J0ixkjhsIaFehI+KWmHzvQRdRAGuNBgfNTO9e6EoEP52O+ADw==);whiteSpace=wrap;fontSize=10;fontFamily=Times New Roman;spacingLeft=10;spacingRight=10;spacingBottom=4;aspect=fixed;" vertex="1" parent="1">
          <mxGeometry x="630" y="240" width="140" height="40" as="geometry" />
        </mxCell>
        <mxCell id="-Re_Ul4PXeO8nZpJJ8m9-55" style="edgeStyle=orthogonalEdgeStyle;rounded=0;orthogonalLoop=1;jettySize=auto;html=1;exitX=0.5;exitY=1;exitDx=0;exitDy=0;entryX=0.5;entryY=0;entryDx=0;entryDy=0;" edge="1" parent="1" source="-Re_Ul4PXeO8nZpJJ8m9-50" target="-Re_Ul4PXeO8nZpJJ8m9-54">
          <mxGeometry relative="1" as="geometry" />
        </mxCell>
        <mxCell id="-Re_Ul4PXeO8nZpJJ8m9-50" value="&lt;p style=&quot;line-height: 1&quot;&gt;&lt;font face=&quot;Helvetica&quot;&gt;Вывод содержимого буфера кадра на экран&lt;/font&gt;&lt;/p&gt;" style="shape=stencil(tVTRboMwDPyavFYh2T5gYtt/pKlXotIkcrJ1/fuaGKQiBq0mQEjgu3B3Bhyh69SYCEJJb84g9LtQKmKwkBLdEdww9iK5vHBZDbVJEWxm8MegM/sWmEkZwwku7pB7CecbQJc7Vn8I+UZrulPXNnhPIi74NGLueBIzztOz8pfFevvrqIqkf4YM2IdkVKjP52V3r9sIVxvlHcsO6VfPu57wOHG11YdbTbj6v6yuCZn7uXW9N/Z0xPDtD3+G+XJta0MbkEq+Fi+htOyP5Wai6QZvQgw0dmO7PE4PRn/OmPCJd0FnGqZWA8KDN8G7yYLr7IJiPXEoKG99BbgB);whiteSpace=wrap;html=1;aspect=fixed;fontFamily=Times New Roman;fontSize=10;spacingBottom=4;" vertex="1" parent="1">
          <mxGeometry x="630" y="380" width="140" height="40" as="geometry" />
        </mxCell>
        <mxCell id="-Re_Ul4PXeO8nZpJJ8m9-51" style="edgeStyle=orthogonalEdgeStyle;rounded=0;orthogonalLoop=1;jettySize=auto;html=1;exitX=0.5;exitY=1;exitDx=0;exitDy=0;entryX=0.5;entryY=0;entryDx=0;entryDy=0;entryPerimeter=0;" edge="1" parent="1" source="-Re_Ul4PXeO8nZpJJ8m9-12" target="-Re_Ul4PXeO8nZpJJ8m9-46">
          <mxGeometry relative="1" as="geometry" />
        </mxCell>
        <mxCell id="-Re_Ul4PXeO8nZpJJ8m9-52" style="edgeStyle=orthogonalEdgeStyle;rounded=0;orthogonalLoop=1;jettySize=auto;html=1;exitX=0.5;exitY=1;exitDx=0;exitDy=0;exitPerimeter=0;entryX=0.5;entryY=0;entryDx=0;entryDy=0;entryPerimeter=0;" edge="1" parent="1" source="-Re_Ul4PXeO8nZpJJ8m9-46" target="-Re_Ul4PXeO8nZpJJ8m9-47">
          <mxGeometry relative="1" as="geometry" />
        </mxCell>
        <mxCell id="-Re_Ul4PXeO8nZpJJ8m9-54" value="&lt;p style=&quot;line-height: 1 ; font-size: 10px&quot;&gt;&lt;font face=&quot;Helvetica&quot;&gt;Конец&lt;/font&gt;&lt;/p&gt;" style="shape=stencil(vZXxboMgEMafhj9dUNwDLG57j6u9KimCQVbt2w9Bs6LVrZvOmJj7PvzdHZyRsKwpoUaSUAkVEvZKksSgrrgEo7QNrFN6OaU+bH0YjzE0NebGixfQHA4CvdMYrc7Y8qMZEFyWqLnpXfZG6Itd098sy5WUFsKVbALnxrcw4NK+SzsPG9Jfg6i2/AptB0ORXiXJ+8+xT8/7gOOd6g2xY/Wb17sdOKw43uvgNgPHv8eyzCpLw82yA+TnQqsPebxbzIkLkSvRf4fUP10ukjA6XOvN1NB/eDNjtCt1wa8uJ8eSrrJHBOh8kTBEeuLqaxgL0AVGFhSdBBTBbjYtYj2Xuwg63kRaGeg3Nci2Xq7g8qbj+H7BD3Q8JaR/6Jn+S88PnbKb3tkQOXVhcu3MKo3fjLT/LaxkXVzgUs8yONX/xpzwCQ==);whiteSpace=wrap;html=1;aspect=fixed;fontFamily=Times New Roman;fontSize=10;spacingBottom=4;" vertex="1" parent="1">
          <mxGeometry x="630" y="520" width="140" height="40" as="geometry" />
        </mxCell>
      </root>
    </mxGraphModel>
  </diagram>
  <diagram id="QCZA69VnuD9X3Rtotsq3" name="Диаграмма классов">
    <mxGraphModel dx="1235" dy="1956" grid="1" gridSize="10" guides="1" tooltips="1" connect="1" arrows="1" fold="1" page="1" pageScale="1" pageWidth="827" pageHeight="1169" math="0" shadow="0">
      <root>
        <mxCell id="0" />
        <mxCell id="1" parent="0" />
        <mxCell id="sycoFVPmuBbPcmt5koh0-190" style="edgeStyle=orthogonalEdgeStyle;rounded=0;orthogonalLoop=1;jettySize=auto;html=1;entryX=0.5;entryY=0;entryDx=0;entryDy=0;dashed=1;endArrow=open;endFill=0;endSize=15;" edge="1" parent="1" source="sycoFVPmuBbPcmt5koh0-1" target="sycoFVPmuBbPcmt5koh0-135">
          <mxGeometry relative="1" as="geometry">
            <Array as="points">
              <mxPoint x="436" y="190" />
              <mxPoint x="170" y="190" />
            </Array>
          </mxGeometry>
        </mxCell>
        <mxCell id="sycoFVPmuBbPcmt5koh0-201" style="edgeStyle=none;rounded=0;orthogonalLoop=1;jettySize=auto;html=1;exitX=0.5;exitY=0;exitDx=0;exitDy=0;dashed=1;endArrow=open;endFill=0;endSize=15;" edge="1" parent="1" source="sycoFVPmuBbPcmt5koh0-1" target="sycoFVPmuBbPcmt5koh0-5">
          <mxGeometry relative="1" as="geometry" />
        </mxCell>
        <mxCell id="sycoFVPmuBbPcmt5koh0-1" value="Facade" style="swimlane;fontStyle=0;childLayout=stackLayout;horizontal=1;startSize=26;fillColor=none;horizontalStack=0;resizeParent=1;resizeParentMax=0;resizeLast=0;collapsible=1;marginBottom=0;whiteSpace=wrap;html=1;strokeWidth=3;" vertex="1" parent="1">
          <mxGeometry x="366" y="80" width="140" height="52" as="geometry" />
        </mxCell>
        <mxCell id="sycoFVPmuBbPcmt5koh0-2" value="+ выполнение" style="text;strokeColor=none;fillColor=none;align=left;verticalAlign=top;spacingLeft=4;spacingRight=4;overflow=hidden;rotatable=0;points=[[0,0.5],[1,0.5]];portConstraint=eastwest;whiteSpace=wrap;html=1;" vertex="1" parent="sycoFVPmuBbPcmt5koh0-1">
          <mxGeometry y="26" width="140" height="26" as="geometry" />
        </mxCell>
        <mxCell id="sycoFVPmuBbPcmt5koh0-5" value="Command" style="swimlane;fontStyle=0;childLayout=stackLayout;horizontal=1;startSize=26;fillColor=none;horizontalStack=0;resizeParent=1;resizeParentMax=0;resizeLast=0;collapsible=1;marginBottom=0;whiteSpace=wrap;html=1;" vertex="1" parent="1">
          <mxGeometry x="366" y="-75" width="140" height="52" as="geometry" />
        </mxCell>
        <mxCell id="sycoFVPmuBbPcmt5koh0-6" value="+ выполнение" style="text;strokeColor=none;fillColor=none;align=left;verticalAlign=top;spacingLeft=4;spacingRight=4;overflow=hidden;rotatable=0;points=[[0,0.5],[1,0.5]];portConstraint=eastwest;whiteSpace=wrap;html=1;" vertex="1" parent="sycoFVPmuBbPcmt5koh0-5">
          <mxGeometry y="26" width="140" height="26" as="geometry" />
        </mxCell>
        <mxCell id="sycoFVPmuBbPcmt5koh0-23" style="edgeStyle=orthogonalEdgeStyle;rounded=0;orthogonalLoop=1;jettySize=auto;html=1;exitX=0;exitY=0.5;exitDx=0;exitDy=0;endArrow=none;endFill=0;" edge="1" parent="1" source="sycoFVPmuBbPcmt5koh0-9">
          <mxGeometry relative="1" as="geometry">
            <mxPoint x="540" y="140" as="targetPoint" />
          </mxGeometry>
        </mxCell>
        <mxCell id="sycoFVPmuBbPcmt5koh0-9" value="CameraCommand" style="swimlane;fontStyle=0;childLayout=stackLayout;horizontal=1;startSize=26;fillColor=none;horizontalStack=0;resizeParent=1;resizeParentMax=0;resizeLast=0;collapsible=1;marginBottom=0;whiteSpace=wrap;html=1;" vertex="1" parent="1">
          <mxGeometry x="560" y="250" width="140" height="52" as="geometry" />
        </mxCell>
        <mxCell id="sycoFVPmuBbPcmt5koh0-10" value="+ выполнение" style="text;strokeColor=none;fillColor=none;align=left;verticalAlign=top;spacingLeft=4;spacingRight=4;overflow=hidden;rotatable=0;points=[[0,0.5],[1,0.5]];portConstraint=eastwest;whiteSpace=wrap;html=1;" vertex="1" parent="sycoFVPmuBbPcmt5koh0-9">
          <mxGeometry y="26" width="140" height="26" as="geometry" />
        </mxCell>
        <mxCell id="sycoFVPmuBbPcmt5koh0-22" style="edgeStyle=orthogonalEdgeStyle;rounded=0;orthogonalLoop=1;jettySize=auto;html=1;exitX=0;exitY=0.5;exitDx=0;exitDy=0;endArrow=none;endFill=0;" edge="1" parent="1" source="sycoFVPmuBbPcmt5koh0-12">
          <mxGeometry relative="1" as="geometry">
            <mxPoint x="540" y="146.33333333333348" as="targetPoint" />
          </mxGeometry>
        </mxCell>
        <mxCell id="sycoFVPmuBbPcmt5koh0-12" value="DrawsCommand" style="swimlane;fontStyle=0;childLayout=stackLayout;horizontal=1;startSize=26;fillColor=none;horizontalStack=0;resizeParent=1;resizeParentMax=0;resizeLast=0;collapsible=1;marginBottom=0;whiteSpace=wrap;html=1;" vertex="1" parent="1">
          <mxGeometry x="560" y="120" width="140" height="52" as="geometry" />
        </mxCell>
        <mxCell id="sycoFVPmuBbPcmt5koh0-13" value="+ выполнение" style="text;strokeColor=none;fillColor=none;align=left;verticalAlign=top;spacingLeft=4;spacingRight=4;overflow=hidden;rotatable=0;points=[[0,0.5],[1,0.5]];portConstraint=eastwest;whiteSpace=wrap;html=1;" vertex="1" parent="sycoFVPmuBbPcmt5koh0-12">
          <mxGeometry y="26" width="140" height="26" as="geometry" />
        </mxCell>
        <mxCell id="sycoFVPmuBbPcmt5koh0-25" style="edgeStyle=orthogonalEdgeStyle;rounded=0;orthogonalLoop=1;jettySize=auto;html=1;exitX=0;exitY=0.5;exitDx=0;exitDy=0;endArrow=none;endFill=0;" edge="1" parent="1" source="sycoFVPmuBbPcmt5koh0-14">
          <mxGeometry relative="1" as="geometry">
            <mxPoint x="540" y="270" as="targetPoint" />
          </mxGeometry>
        </mxCell>
        <mxCell id="sycoFVPmuBbPcmt5koh0-14" value="FormCommand" style="swimlane;fontStyle=0;childLayout=stackLayout;horizontal=1;startSize=26;fillColor=none;horizontalStack=0;resizeParent=1;resizeParentMax=0;resizeLast=0;collapsible=1;marginBottom=0;whiteSpace=wrap;html=1;" vertex="1" parent="1">
          <mxGeometry x="560" y="380" width="140" height="52" as="geometry" />
        </mxCell>
        <mxCell id="sycoFVPmuBbPcmt5koh0-15" value="+ выполнение" style="text;strokeColor=none;fillColor=none;align=left;verticalAlign=top;spacingLeft=4;spacingRight=4;overflow=hidden;rotatable=0;points=[[0,0.5],[1,0.5]];portConstraint=eastwest;whiteSpace=wrap;html=1;" vertex="1" parent="sycoFVPmuBbPcmt5koh0-14">
          <mxGeometry y="26" width="140" height="26" as="geometry" />
        </mxCell>
        <mxCell id="sycoFVPmuBbPcmt5koh0-21" style="edgeStyle=orthogonalEdgeStyle;rounded=0;orthogonalLoop=1;jettySize=auto;html=1;exitX=0;exitY=0.5;exitDx=0;exitDy=0;endArrow=none;endFill=0;" edge="1" parent="1" source="sycoFVPmuBbPcmt5koh0-16">
          <mxGeometry relative="1" as="geometry">
            <mxPoint x="540" y="56.333333333333485" as="targetPoint" />
          </mxGeometry>
        </mxCell>
        <mxCell id="sycoFVPmuBbPcmt5koh0-16" value="TransformationCommand" style="swimlane;fontStyle=0;childLayout=stackLayout;horizontal=1;startSize=26;fillColor=none;horizontalStack=0;resizeParent=1;resizeParentMax=0;resizeLast=0;collapsible=1;marginBottom=0;whiteSpace=wrap;html=1;" vertex="1" parent="1">
          <mxGeometry x="560" y="-10" width="140" height="52" as="geometry" />
        </mxCell>
        <mxCell id="sycoFVPmuBbPcmt5koh0-17" value="+ выполнение" style="text;strokeColor=none;fillColor=none;align=left;verticalAlign=top;spacingLeft=4;spacingRight=4;overflow=hidden;rotatable=0;points=[[0,0.5],[1,0.5]];portConstraint=eastwest;whiteSpace=wrap;html=1;" vertex="1" parent="sycoFVPmuBbPcmt5koh0-16">
          <mxGeometry y="26" width="140" height="26" as="geometry" />
        </mxCell>
        <mxCell id="sycoFVPmuBbPcmt5koh0-20" style="edgeStyle=orthogonalEdgeStyle;rounded=0;orthogonalLoop=1;jettySize=auto;html=1;exitX=0;exitY=0.5;exitDx=0;exitDy=0;entryX=1;entryY=0.5;entryDx=0;entryDy=0;endArrow=block;endFill=0;endSize=15;" edge="1" parent="1" source="sycoFVPmuBbPcmt5koh0-18" target="sycoFVPmuBbPcmt5koh0-5">
          <mxGeometry relative="1" as="geometry">
            <Array as="points">
              <mxPoint x="540" y="-114" />
              <mxPoint x="540" y="146" />
              <mxPoint x="530" y="146" />
              <mxPoint x="530" y="-49" />
            </Array>
          </mxGeometry>
        </mxCell>
        <mxCell id="sycoFVPmuBbPcmt5koh0-18" value="SceneCommand" style="swimlane;fontStyle=0;childLayout=stackLayout;horizontal=1;startSize=26;fillColor=none;horizontalStack=0;resizeParent=1;resizeParentMax=0;resizeLast=0;collapsible=1;marginBottom=0;whiteSpace=wrap;html=1;" vertex="1" parent="1">
          <mxGeometry x="560" y="-140" width="140" height="52" as="geometry" />
        </mxCell>
        <mxCell id="sycoFVPmuBbPcmt5koh0-19" value="+ выполнение" style="text;strokeColor=none;fillColor=none;align=left;verticalAlign=top;spacingLeft=4;spacingRight=4;overflow=hidden;rotatable=0;points=[[0,0.5],[1,0.5]];portConstraint=eastwest;whiteSpace=wrap;html=1;" vertex="1" parent="sycoFVPmuBbPcmt5koh0-18">
          <mxGeometry y="26" width="140" height="26" as="geometry" />
        </mxCell>
        <mxCell id="sycoFVPmuBbPcmt5koh0-43" style="edgeStyle=orthogonalEdgeStyle;rounded=0;orthogonalLoop=1;jettySize=auto;html=1;entryX=1;entryY=0.5;entryDx=0;entryDy=0;exitX=0.508;exitY=0.986;exitDx=0;exitDy=0;exitPerimeter=0;endArrow=block;endFill=0;endSize=15;" edge="1" parent="1" source="sycoFVPmuBbPcmt5koh0-35" target="sycoFVPmuBbPcmt5koh0-18">
          <mxGeometry relative="1" as="geometry" />
        </mxCell>
        <mxCell id="sycoFVPmuBbPcmt5koh0-34" value="AddModel" style="swimlane;fontStyle=0;childLayout=stackLayout;horizontal=1;startSize=26;fillColor=none;horizontalStack=0;resizeParent=1;resizeParentMax=0;resizeLast=0;collapsible=1;marginBottom=0;whiteSpace=wrap;html=1;" vertex="1" parent="1">
          <mxGeometry x="720" y="-200" width="140" height="52" as="geometry" />
        </mxCell>
        <mxCell id="sycoFVPmuBbPcmt5koh0-35" value="+ выполнение" style="text;strokeColor=none;fillColor=none;align=left;verticalAlign=top;spacingLeft=4;spacingRight=4;overflow=hidden;rotatable=0;points=[[0,0.5],[1,0.5]];portConstraint=eastwest;whiteSpace=wrap;html=1;" vertex="1" parent="sycoFVPmuBbPcmt5koh0-34">
          <mxGeometry y="26" width="140" height="26" as="geometry" />
        </mxCell>
        <mxCell id="sycoFVPmuBbPcmt5koh0-36" value="RemoveModel" style="swimlane;fontStyle=0;childLayout=stackLayout;horizontal=1;startSize=26;fillColor=none;horizontalStack=0;resizeParent=1;resizeParentMax=0;resizeLast=0;collapsible=1;marginBottom=0;whiteSpace=wrap;html=1;" vertex="1" parent="1">
          <mxGeometry x="870" y="-200" width="140" height="52" as="geometry" />
        </mxCell>
        <mxCell id="sycoFVPmuBbPcmt5koh0-37" value="+ выполнение" style="text;strokeColor=none;fillColor=none;align=left;verticalAlign=top;spacingLeft=4;spacingRight=4;overflow=hidden;rotatable=0;points=[[0,0.5],[1,0.5]];portConstraint=eastwest;whiteSpace=wrap;html=1;" vertex="1" parent="sycoFVPmuBbPcmt5koh0-36">
          <mxGeometry y="26" width="140" height="26" as="geometry" />
        </mxCell>
        <mxCell id="sycoFVPmuBbPcmt5koh0-38" value="RemoveModels" style="swimlane;fontStyle=0;childLayout=stackLayout;horizontal=1;startSize=26;fillColor=none;horizontalStack=0;resizeParent=1;resizeParentMax=0;resizeLast=0;collapsible=1;marginBottom=0;whiteSpace=wrap;html=1;" vertex="1" parent="1">
          <mxGeometry x="1020" y="-200" width="140" height="52" as="geometry" />
        </mxCell>
        <mxCell id="sycoFVPmuBbPcmt5koh0-39" value="+ выполнение" style="text;strokeColor=none;fillColor=none;align=left;verticalAlign=top;spacingLeft=4;spacingRight=4;overflow=hidden;rotatable=0;points=[[0,0.5],[1,0.5]];portConstraint=eastwest;whiteSpace=wrap;html=1;" vertex="1" parent="sycoFVPmuBbPcmt5koh0-38">
          <mxGeometry y="26" width="140" height="26" as="geometry" />
        </mxCell>
        <mxCell id="sycoFVPmuBbPcmt5koh0-51" value="" style="edgeStyle=orthogonalEdgeStyle;orthogonalLoop=1;jettySize=auto;html=1;rounded=0;entryX=0.501;entryY=1.015;entryDx=0;entryDy=0;entryPerimeter=0;endArrow=none;endFill=0;" edge="1" parent="1" target="sycoFVPmuBbPcmt5koh0-37">
          <mxGeometry width="80" relative="1" as="geometry">
            <mxPoint x="790" y="-114" as="sourcePoint" />
            <mxPoint x="970" y="-110" as="targetPoint" />
            <Array as="points">
              <mxPoint x="940" y="-114" />
            </Array>
          </mxGeometry>
        </mxCell>
        <mxCell id="sycoFVPmuBbPcmt5koh0-52" value="" style="edgeStyle=orthogonalEdgeStyle;orthogonalLoop=1;jettySize=auto;html=1;rounded=0;entryX=0.501;entryY=1.015;entryDx=0;entryDy=0;entryPerimeter=0;endArrow=none;endFill=0;" edge="1" parent="1">
          <mxGeometry width="80" relative="1" as="geometry">
            <mxPoint x="940" y="-114" as="sourcePoint" />
            <mxPoint x="1100" y="-148" as="targetPoint" />
            <Array as="points">
              <mxPoint x="1090" y="-114" />
              <mxPoint x="1090" y="-148" />
            </Array>
          </mxGeometry>
        </mxCell>
        <mxCell id="sycoFVPmuBbPcmt5koh0-55" style="edgeStyle=orthogonalEdgeStyle;rounded=0;orthogonalLoop=1;jettySize=auto;html=1;exitX=0.5;exitY=1;exitDx=0;exitDy=0;entryX=1;entryY=0.5;entryDx=0;entryDy=0;endArrow=block;endFill=0;endSize=15;" edge="1" parent="1" source="sycoFVPmuBbPcmt5koh0-53" target="sycoFVPmuBbPcmt5koh0-16">
          <mxGeometry relative="1" as="geometry" />
        </mxCell>
        <mxCell id="sycoFVPmuBbPcmt5koh0-53" value="Move" style="swimlane;fontStyle=0;childLayout=stackLayout;horizontal=1;startSize=26;fillColor=none;horizontalStack=0;resizeParent=1;resizeParentMax=0;resizeLast=0;collapsible=1;marginBottom=0;whiteSpace=wrap;html=1;" vertex="1" parent="1">
          <mxGeometry x="720" y="-70" width="140" height="52" as="geometry" />
        </mxCell>
        <mxCell id="sycoFVPmuBbPcmt5koh0-54" value="+ выполнение" style="text;strokeColor=none;fillColor=none;align=left;verticalAlign=top;spacingLeft=4;spacingRight=4;overflow=hidden;rotatable=0;points=[[0,0.5],[1,0.5]];portConstraint=eastwest;whiteSpace=wrap;html=1;" vertex="1" parent="sycoFVPmuBbPcmt5koh0-53">
          <mxGeometry y="26" width="140" height="26" as="geometry" />
        </mxCell>
        <mxCell id="sycoFVPmuBbPcmt5koh0-56" value="Rotate" style="swimlane;fontStyle=0;childLayout=stackLayout;horizontal=1;startSize=26;fillColor=none;horizontalStack=0;resizeParent=1;resizeParentMax=0;resizeLast=0;collapsible=1;marginBottom=0;whiteSpace=wrap;html=1;" vertex="1" parent="1">
          <mxGeometry x="870" y="-70" width="140" height="52" as="geometry" />
        </mxCell>
        <mxCell id="sycoFVPmuBbPcmt5koh0-57" value="+ выполнение" style="text;strokeColor=none;fillColor=none;align=left;verticalAlign=top;spacingLeft=4;spacingRight=4;overflow=hidden;rotatable=0;points=[[0,0.5],[1,0.5]];portConstraint=eastwest;whiteSpace=wrap;html=1;" vertex="1" parent="sycoFVPmuBbPcmt5koh0-56">
          <mxGeometry y="26" width="140" height="26" as="geometry" />
        </mxCell>
        <mxCell id="sycoFVPmuBbPcmt5koh0-58" value="Scale" style="swimlane;fontStyle=0;childLayout=stackLayout;horizontal=1;startSize=26;fillColor=none;horizontalStack=0;resizeParent=1;resizeParentMax=0;resizeLast=0;collapsible=1;marginBottom=0;whiteSpace=wrap;html=1;" vertex="1" parent="1">
          <mxGeometry x="1020" y="-70" width="140" height="52" as="geometry" />
        </mxCell>
        <mxCell id="sycoFVPmuBbPcmt5koh0-59" value="+ выполнение" style="text;strokeColor=none;fillColor=none;align=left;verticalAlign=top;spacingLeft=4;spacingRight=4;overflow=hidden;rotatable=0;points=[[0,0.5],[1,0.5]];portConstraint=eastwest;whiteSpace=wrap;html=1;" vertex="1" parent="sycoFVPmuBbPcmt5koh0-58">
          <mxGeometry y="26" width="140" height="26" as="geometry" />
        </mxCell>
        <mxCell id="sycoFVPmuBbPcmt5koh0-60" value="" style="edgeStyle=orthogonalEdgeStyle;orthogonalLoop=1;jettySize=auto;html=1;rounded=0;entryX=0.501;entryY=1.015;entryDx=0;entryDy=0;entryPerimeter=0;endArrow=none;endFill=0;" edge="1" parent="1">
          <mxGeometry width="80" relative="1" as="geometry">
            <mxPoint x="790" y="16" as="sourcePoint" />
            <mxPoint x="940" y="-18" as="targetPoint" />
            <Array as="points">
              <mxPoint x="940" y="16" />
            </Array>
          </mxGeometry>
        </mxCell>
        <mxCell id="sycoFVPmuBbPcmt5koh0-61" value="" style="edgeStyle=orthogonalEdgeStyle;orthogonalLoop=1;jettySize=auto;html=1;rounded=0;entryX=0.501;entryY=1.015;entryDx=0;entryDy=0;entryPerimeter=0;endArrow=none;endFill=0;" edge="1" parent="1">
          <mxGeometry width="80" relative="1" as="geometry">
            <mxPoint x="940" y="16" as="sourcePoint" />
            <mxPoint x="1100" y="-18" as="targetPoint" />
            <Array as="points">
              <mxPoint x="1090" y="16" />
              <mxPoint x="1090" y="-18" />
            </Array>
          </mxGeometry>
        </mxCell>
        <mxCell id="sycoFVPmuBbPcmt5koh0-68" style="edgeStyle=orthogonalEdgeStyle;rounded=0;orthogonalLoop=1;jettySize=auto;html=1;entryX=1;entryY=0.5;entryDx=0;entryDy=0;endArrow=block;endFill=0;endSize=15;" edge="1" parent="1" source="sycoFVPmuBbPcmt5koh0-62" target="sycoFVPmuBbPcmt5koh0-12">
          <mxGeometry relative="1" as="geometry">
            <Array as="points">
              <mxPoint x="790" y="146" />
            </Array>
          </mxGeometry>
        </mxCell>
        <mxCell id="sycoFVPmuBbPcmt5koh0-62" value="Draw" style="swimlane;fontStyle=0;childLayout=stackLayout;horizontal=1;startSize=26;fillColor=none;horizontalStack=0;resizeParent=1;resizeParentMax=0;resizeLast=0;collapsible=1;marginBottom=0;whiteSpace=wrap;html=1;" vertex="1" parent="1">
          <mxGeometry x="720" y="60" width="140" height="52" as="geometry" />
        </mxCell>
        <mxCell id="sycoFVPmuBbPcmt5koh0-63" value="+ выполнение" style="text;strokeColor=none;fillColor=none;align=left;verticalAlign=top;spacingLeft=4;spacingRight=4;overflow=hidden;rotatable=0;points=[[0,0.5],[1,0.5]];portConstraint=eastwest;whiteSpace=wrap;html=1;" vertex="1" parent="sycoFVPmuBbPcmt5koh0-62">
          <mxGeometry y="26" width="140" height="26" as="geometry" />
        </mxCell>
        <mxCell id="sycoFVPmuBbPcmt5koh0-64" value="Render" style="swimlane;fontStyle=0;childLayout=stackLayout;horizontal=1;startSize=26;fillColor=none;horizontalStack=0;resizeParent=1;resizeParentMax=0;resizeLast=0;collapsible=1;marginBottom=0;whiteSpace=wrap;html=1;" vertex="1" parent="1">
          <mxGeometry x="870" y="60" width="140" height="52" as="geometry" />
        </mxCell>
        <mxCell id="sycoFVPmuBbPcmt5koh0-65" value="+ выполнение" style="text;strokeColor=none;fillColor=none;align=left;verticalAlign=top;spacingLeft=4;spacingRight=4;overflow=hidden;rotatable=0;points=[[0,0.5],[1,0.5]];portConstraint=eastwest;whiteSpace=wrap;html=1;" vertex="1" parent="sycoFVPmuBbPcmt5koh0-64">
          <mxGeometry y="26" width="140" height="26" as="geometry" />
        </mxCell>
        <mxCell id="sycoFVPmuBbPcmt5koh0-66" value="Clear" style="swimlane;fontStyle=0;childLayout=stackLayout;horizontal=1;startSize=26;fillColor=none;horizontalStack=0;resizeParent=1;resizeParentMax=0;resizeLast=0;collapsible=1;marginBottom=0;whiteSpace=wrap;html=1;" vertex="1" parent="1">
          <mxGeometry x="1020" y="60" width="140" height="52" as="geometry" />
        </mxCell>
        <mxCell id="sycoFVPmuBbPcmt5koh0-67" value="+ выполнение" style="text;strokeColor=none;fillColor=none;align=left;verticalAlign=top;spacingLeft=4;spacingRight=4;overflow=hidden;rotatable=0;points=[[0,0.5],[1,0.5]];portConstraint=eastwest;whiteSpace=wrap;html=1;" vertex="1" parent="sycoFVPmuBbPcmt5koh0-66">
          <mxGeometry y="26" width="140" height="26" as="geometry" />
        </mxCell>
        <mxCell id="sycoFVPmuBbPcmt5koh0-71" value="" style="edgeStyle=orthogonalEdgeStyle;orthogonalLoop=1;jettySize=auto;html=1;rounded=0;entryX=0.501;entryY=1.015;entryDx=0;entryDy=0;entryPerimeter=0;endArrow=none;endFill=0;" edge="1" parent="1">
          <mxGeometry width="80" relative="1" as="geometry">
            <mxPoint x="790" y="146" as="sourcePoint" />
            <mxPoint x="940" y="112" as="targetPoint" />
            <Array as="points">
              <mxPoint x="940" y="146" />
            </Array>
          </mxGeometry>
        </mxCell>
        <mxCell id="sycoFVPmuBbPcmt5koh0-72" value="" style="edgeStyle=orthogonalEdgeStyle;orthogonalLoop=1;jettySize=auto;html=1;rounded=0;endArrow=none;endFill=0;" edge="1" parent="1">
          <mxGeometry width="80" relative="1" as="geometry">
            <mxPoint x="940" y="146" as="sourcePoint" />
            <mxPoint x="1090" y="112" as="targetPoint" />
            <Array as="points">
              <mxPoint x="1090" y="146" />
              <mxPoint x="1090" y="112" />
            </Array>
          </mxGeometry>
        </mxCell>
        <mxCell id="sycoFVPmuBbPcmt5koh0-101" style="edgeStyle=orthogonalEdgeStyle;rounded=0;orthogonalLoop=1;jettySize=auto;html=1;entryX=1;entryY=0.5;entryDx=0;entryDy=0;endArrow=block;endFill=0;endSize=15;" edge="1" parent="1" source="sycoFVPmuBbPcmt5koh0-82" target="sycoFVPmuBbPcmt5koh0-14">
          <mxGeometry relative="1" as="geometry">
            <Array as="points">
              <mxPoint x="790" y="406" />
            </Array>
          </mxGeometry>
        </mxCell>
        <mxCell id="sycoFVPmuBbPcmt5koh0-82" value="DialogEditShow" style="swimlane;fontStyle=0;childLayout=stackLayout;horizontal=1;startSize=26;fillColor=none;horizontalStack=0;resizeParent=1;resizeParentMax=0;resizeLast=0;collapsible=1;marginBottom=0;whiteSpace=wrap;html=1;" vertex="1" parent="1">
          <mxGeometry x="720" y="320" width="140" height="52" as="geometry" />
        </mxCell>
        <mxCell id="sycoFVPmuBbPcmt5koh0-83" value="+ выполнение" style="text;strokeColor=none;fillColor=none;align=left;verticalAlign=top;spacingLeft=4;spacingRight=4;overflow=hidden;rotatable=0;points=[[0,0.5],[1,0.5]];portConstraint=eastwest;whiteSpace=wrap;html=1;" vertex="1" parent="sycoFVPmuBbPcmt5koh0-82">
          <mxGeometry y="26" width="140" height="26" as="geometry" />
        </mxCell>
        <mxCell id="sycoFVPmuBbPcmt5koh0-84" value="ErrorMessageShow" style="swimlane;fontStyle=0;childLayout=stackLayout;horizontal=1;startSize=26;fillColor=none;horizontalStack=0;resizeParent=1;resizeParentMax=0;resizeLast=0;collapsible=1;marginBottom=0;whiteSpace=wrap;html=1;" vertex="1" parent="1">
          <mxGeometry x="870" y="320" width="140" height="52" as="geometry" />
        </mxCell>
        <mxCell id="sycoFVPmuBbPcmt5koh0-85" value="+ выполнение" style="text;strokeColor=none;fillColor=none;align=left;verticalAlign=top;spacingLeft=4;spacingRight=4;overflow=hidden;rotatable=0;points=[[0,0.5],[1,0.5]];portConstraint=eastwest;whiteSpace=wrap;html=1;" vertex="1" parent="sycoFVPmuBbPcmt5koh0-84">
          <mxGeometry y="26" width="140" height="26" as="geometry" />
        </mxCell>
        <mxCell id="sycoFVPmuBbPcmt5koh0-100" style="edgeStyle=none;rounded=0;orthogonalLoop=1;jettySize=auto;html=1;entryX=1;entryY=0.5;entryDx=0;entryDy=0;endArrow=block;endFill=0;endSize=15;" edge="1" parent="1" source="sycoFVPmuBbPcmt5koh0-91" target="sycoFVPmuBbPcmt5koh0-9">
          <mxGeometry relative="1" as="geometry" />
        </mxCell>
        <mxCell id="sycoFVPmuBbPcmt5koh0-91" value="MoveCamera" style="swimlane;fontStyle=0;childLayout=stackLayout;horizontal=1;startSize=26;fillColor=none;horizontalStack=0;resizeParent=1;resizeParentMax=0;resizeLast=0;collapsible=1;marginBottom=0;whiteSpace=wrap;html=1;" vertex="1" parent="1">
          <mxGeometry x="720" y="250" width="140" height="52" as="geometry" />
        </mxCell>
        <mxCell id="sycoFVPmuBbPcmt5koh0-92" value="+ выполнение" style="text;strokeColor=none;fillColor=none;align=left;verticalAlign=top;spacingLeft=4;spacingRight=4;overflow=hidden;rotatable=0;points=[[0,0.5],[1,0.5]];portConstraint=eastwest;whiteSpace=wrap;html=1;" vertex="1" parent="sycoFVPmuBbPcmt5koh0-91">
          <mxGeometry y="26" width="140" height="26" as="geometry" />
        </mxCell>
        <mxCell id="sycoFVPmuBbPcmt5koh0-97" style="edgeStyle=orthogonalEdgeStyle;rounded=0;orthogonalLoop=1;jettySize=auto;html=1;entryX=1;entryY=0.5;entryDx=0;entryDy=0;endArrow=block;endFill=0;endSize=15;" edge="1" parent="1" source="sycoFVPmuBbPcmt5koh0-93" target="sycoFVPmuBbPcmt5koh0-91">
          <mxGeometry relative="1" as="geometry">
            <Array as="points">
              <mxPoint x="940" y="276" />
            </Array>
          </mxGeometry>
        </mxCell>
        <mxCell id="sycoFVPmuBbPcmt5koh0-93" value="MoveRight" style="swimlane;fontStyle=0;childLayout=stackLayout;horizontal=1;startSize=26;fillColor=none;horizontalStack=0;resizeParent=1;resizeParentMax=0;resizeLast=0;collapsible=1;marginBottom=0;whiteSpace=wrap;html=1;" vertex="1" parent="1">
          <mxGeometry x="870" y="190" width="140" height="52" as="geometry" />
        </mxCell>
        <mxCell id="sycoFVPmuBbPcmt5koh0-94" value="+ выполнение" style="text;strokeColor=none;fillColor=none;align=left;verticalAlign=top;spacingLeft=4;spacingRight=4;overflow=hidden;rotatable=0;points=[[0,0.5],[1,0.5]];portConstraint=eastwest;whiteSpace=wrap;html=1;" vertex="1" parent="sycoFVPmuBbPcmt5koh0-93">
          <mxGeometry y="26" width="140" height="26" as="geometry" />
        </mxCell>
        <mxCell id="sycoFVPmuBbPcmt5koh0-95" value="MoveForward" style="swimlane;fontStyle=0;childLayout=stackLayout;horizontal=1;startSize=26;fillColor=none;horizontalStack=0;resizeParent=1;resizeParentMax=0;resizeLast=0;collapsible=1;marginBottom=0;whiteSpace=wrap;html=1;" vertex="1" parent="1">
          <mxGeometry x="1020" y="190" width="140" height="52" as="geometry" />
        </mxCell>
        <mxCell id="sycoFVPmuBbPcmt5koh0-96" value="+ выполнение" style="text;strokeColor=none;fillColor=none;align=left;verticalAlign=top;spacingLeft=4;spacingRight=4;overflow=hidden;rotatable=0;points=[[0,0.5],[1,0.5]];portConstraint=eastwest;whiteSpace=wrap;html=1;" vertex="1" parent="sycoFVPmuBbPcmt5koh0-95">
          <mxGeometry y="26" width="140" height="26" as="geometry" />
        </mxCell>
        <mxCell id="sycoFVPmuBbPcmt5koh0-99" value="" style="edgeStyle=orthogonalEdgeStyle;orthogonalLoop=1;jettySize=auto;html=1;rounded=0;endArrow=none;endFill=0;" edge="1" parent="1">
          <mxGeometry width="80" relative="1" as="geometry">
            <mxPoint x="940" y="276" as="sourcePoint" />
            <mxPoint x="1090" y="242" as="targetPoint" />
            <Array as="points">
              <mxPoint x="1090" y="276" />
              <mxPoint x="1090" y="242" />
            </Array>
          </mxGeometry>
        </mxCell>
        <mxCell id="sycoFVPmuBbPcmt5koh0-103" value="" style="edgeStyle=orthogonalEdgeStyle;orthogonalLoop=1;jettySize=auto;html=1;rounded=0;endArrow=none;endFill=0;" edge="1" parent="1">
          <mxGeometry width="80" relative="1" as="geometry">
            <mxPoint x="790" y="406" as="sourcePoint" />
            <mxPoint x="940" y="372" as="targetPoint" />
            <Array as="points">
              <mxPoint x="940" y="406" />
              <mxPoint x="940" y="372" />
            </Array>
          </mxGeometry>
        </mxCell>
        <mxCell id="sycoFVPmuBbPcmt5koh0-127" style="edgeStyle=none;rounded=0;orthogonalLoop=1;jettySize=auto;html=1;exitX=1;exitY=0.5;exitDx=0;exitDy=0;endArrow=none;endFill=0;" edge="1" parent="1" source="sycoFVPmuBbPcmt5koh0-107">
          <mxGeometry relative="1" as="geometry">
            <mxPoint x="310" y="81" as="targetPoint" />
          </mxGeometry>
        </mxCell>
        <mxCell id="sycoFVPmuBbPcmt5koh0-107" value="CameraManager" style="swimlane;fontStyle=0;childLayout=stackLayout;horizontal=1;startSize=26;fillColor=none;horizontalStack=0;resizeParent=1;resizeParentMax=0;resizeLast=0;collapsible=1;marginBottom=0;whiteSpace=wrap;html=1;" vertex="1" parent="1">
          <mxGeometry x="80" y="55" width="140" height="52" as="geometry" />
        </mxCell>
        <mxCell id="sycoFVPmuBbPcmt5koh0-108" value="+ выполнение" style="text;strokeColor=none;fillColor=none;align=left;verticalAlign=top;spacingLeft=4;spacingRight=4;overflow=hidden;rotatable=0;points=[[0,0.5],[1,0.5]];portConstraint=eastwest;whiteSpace=wrap;html=1;" vertex="1" parent="sycoFVPmuBbPcmt5koh0-107">
          <mxGeometry y="26" width="140" height="26" as="geometry" />
        </mxCell>
        <mxCell id="sycoFVPmuBbPcmt5koh0-128" style="edgeStyle=orthogonalEdgeStyle;rounded=0;orthogonalLoop=1;jettySize=auto;html=1;exitX=1;exitY=0.5;exitDx=0;exitDy=0;endArrow=diamondThin;endFill=1;entryX=0;entryY=0.5;entryDx=0;entryDy=0;endSize=15;" edge="1" parent="1" source="sycoFVPmuBbPcmt5koh0-109" target="sycoFVPmuBbPcmt5koh0-1">
          <mxGeometry relative="1" as="geometry">
            <mxPoint x="300" y="146" as="targetPoint" />
            <Array as="points">
              <mxPoint x="310" y="146" />
              <mxPoint x="310" y="106" />
            </Array>
          </mxGeometry>
        </mxCell>
        <mxCell id="sycoFVPmuBbPcmt5koh0-109" value="FormManager" style="swimlane;fontStyle=0;childLayout=stackLayout;horizontal=1;startSize=26;fillColor=none;horizontalStack=0;resizeParent=1;resizeParentMax=0;resizeLast=0;collapsible=1;marginBottom=0;whiteSpace=wrap;html=1;" vertex="1" parent="1">
          <mxGeometry x="80" y="120" width="140" height="52" as="geometry" />
        </mxCell>
        <mxCell id="sycoFVPmuBbPcmt5koh0-189" style="edgeStyle=orthogonalEdgeStyle;rounded=0;orthogonalLoop=1;jettySize=auto;html=1;exitX=1;exitY=0.5;exitDx=0;exitDy=0;endArrow=none;endFill=0;" edge="1" parent="sycoFVPmuBbPcmt5koh0-109" source="sycoFVPmuBbPcmt5koh0-110">
          <mxGeometry relative="1" as="geometry">
            <mxPoint x="240" y="-40" as="targetPoint" />
          </mxGeometry>
        </mxCell>
        <mxCell id="sycoFVPmuBbPcmt5koh0-110" value="+ выполнение" style="text;strokeColor=none;fillColor=none;align=left;verticalAlign=top;spacingLeft=4;spacingRight=4;overflow=hidden;rotatable=0;points=[[0,0.5],[1,0.5]];portConstraint=eastwest;whiteSpace=wrap;html=1;" vertex="1" parent="sycoFVPmuBbPcmt5koh0-109">
          <mxGeometry y="26" width="140" height="26" as="geometry" />
        </mxCell>
        <mxCell id="sycoFVPmuBbPcmt5koh0-126" style="edgeStyle=none;rounded=0;orthogonalLoop=1;jettySize=auto;html=1;exitX=1;exitY=0.5;exitDx=0;exitDy=0;endArrow=none;endFill=0;" edge="1" parent="1" source="sycoFVPmuBbPcmt5koh0-111">
          <mxGeometry relative="1" as="geometry">
            <mxPoint x="310" y="16" as="targetPoint" />
          </mxGeometry>
        </mxCell>
        <mxCell id="sycoFVPmuBbPcmt5koh0-111" value="DrawsManager" style="swimlane;fontStyle=0;childLayout=stackLayout;horizontal=1;startSize=26;fillColor=none;horizontalStack=0;resizeParent=1;resizeParentMax=0;resizeLast=0;collapsible=1;marginBottom=0;whiteSpace=wrap;html=1;" vertex="1" parent="1">
          <mxGeometry x="80" y="-10" width="140" height="52" as="geometry" />
        </mxCell>
        <mxCell id="sycoFVPmuBbPcmt5koh0-132" style="edgeStyle=none;rounded=0;orthogonalLoop=1;jettySize=auto;html=1;exitX=1;exitY=0.5;exitDx=0;exitDy=0;endArrow=none;endFill=0;" edge="1" parent="sycoFVPmuBbPcmt5koh0-111" source="sycoFVPmuBbPcmt5koh0-112">
          <mxGeometry relative="1" as="geometry">
            <mxPoint x="240" y="39" as="targetPoint" />
          </mxGeometry>
        </mxCell>
        <mxCell id="sycoFVPmuBbPcmt5koh0-112" value="+ выполнение" style="text;strokeColor=none;fillColor=none;align=left;verticalAlign=top;spacingLeft=4;spacingRight=4;overflow=hidden;rotatable=0;points=[[0,0.5],[1,0.5]];portConstraint=eastwest;whiteSpace=wrap;html=1;" vertex="1" parent="sycoFVPmuBbPcmt5koh0-111">
          <mxGeometry y="26" width="140" height="26" as="geometry" />
        </mxCell>
        <mxCell id="sycoFVPmuBbPcmt5koh0-125" style="edgeStyle=orthogonalEdgeStyle;rounded=0;orthogonalLoop=1;jettySize=auto;html=1;exitX=1;exitY=0.5;exitDx=0;exitDy=0;endArrow=none;endFill=0;" edge="1" parent="1" source="sycoFVPmuBbPcmt5koh0-113">
          <mxGeometry relative="1" as="geometry">
            <mxPoint x="310" y="-49" as="targetPoint" />
          </mxGeometry>
        </mxCell>
        <mxCell id="sycoFVPmuBbPcmt5koh0-113" value="TransformationManager" style="swimlane;fontStyle=0;childLayout=stackLayout;horizontal=1;startSize=26;fillColor=none;horizontalStack=0;resizeParent=1;resizeParentMax=0;resizeLast=0;collapsible=1;marginBottom=0;whiteSpace=wrap;html=1;" vertex="1" parent="1">
          <mxGeometry x="80" y="-75" width="140" height="52" as="geometry" />
        </mxCell>
        <mxCell id="sycoFVPmuBbPcmt5koh0-131" style="edgeStyle=none;rounded=0;orthogonalLoop=1;jettySize=auto;html=1;exitX=1;exitY=0.5;exitDx=0;exitDy=0;endArrow=none;endFill=0;" edge="1" parent="sycoFVPmuBbPcmt5koh0-113" source="sycoFVPmuBbPcmt5koh0-114">
          <mxGeometry relative="1" as="geometry">
            <mxPoint x="240" y="39" as="targetPoint" />
          </mxGeometry>
        </mxCell>
        <mxCell id="sycoFVPmuBbPcmt5koh0-114" value="+ выполнение" style="text;strokeColor=none;fillColor=none;align=left;verticalAlign=top;spacingLeft=4;spacingRight=4;overflow=hidden;rotatable=0;points=[[0,0.5],[1,0.5]];portConstraint=eastwest;whiteSpace=wrap;html=1;" vertex="1" parent="sycoFVPmuBbPcmt5koh0-113">
          <mxGeometry y="26" width="140" height="26" as="geometry" />
        </mxCell>
        <mxCell id="sycoFVPmuBbPcmt5koh0-188" style="edgeStyle=orthogonalEdgeStyle;rounded=0;orthogonalLoop=1;jettySize=auto;html=1;exitX=1;exitY=0.5;exitDx=0;exitDy=0;endArrow=none;endFill=0;" edge="1" parent="1" source="sycoFVPmuBbPcmt5koh0-115">
          <mxGeometry relative="1" as="geometry">
            <mxPoint x="310" y="112.00000000000023" as="targetPoint" />
            <mxPoint x="230" y="-112" as="sourcePoint" />
          </mxGeometry>
        </mxCell>
        <mxCell id="sycoFVPmuBbPcmt5koh0-115" value="SceneManager" style="swimlane;fontStyle=0;childLayout=stackLayout;horizontal=1;startSize=26;fillColor=none;horizontalStack=0;resizeParent=1;resizeParentMax=0;resizeLast=0;collapsible=1;marginBottom=0;whiteSpace=wrap;html=1;" vertex="1" parent="1">
          <mxGeometry x="80" y="-140" width="140" height="52" as="geometry" />
        </mxCell>
        <mxCell id="sycoFVPmuBbPcmt5koh0-116" value="+ выполнение" style="text;strokeColor=none;fillColor=none;align=left;verticalAlign=top;spacingLeft=4;spacingRight=4;overflow=hidden;rotatable=0;points=[[0,0.5],[1,0.5]];portConstraint=eastwest;whiteSpace=wrap;html=1;" vertex="1" parent="sycoFVPmuBbPcmt5koh0-115">
          <mxGeometry y="26" width="140" height="26" as="geometry" />
        </mxCell>
        <mxCell id="sycoFVPmuBbPcmt5koh0-117" value="Manager" style="swimlane;fontStyle=0;childLayout=stackLayout;horizontal=1;startSize=26;fillColor=none;horizontalStack=0;resizeParent=1;resizeParentMax=0;resizeLast=0;collapsible=1;marginBottom=0;whiteSpace=wrap;html=1;" vertex="1" parent="1">
          <mxGeometry x="366" y="-140" width="140" height="52" as="geometry" />
        </mxCell>
        <mxCell id="sycoFVPmuBbPcmt5koh0-118" value="+ выполнение" style="text;strokeColor=none;fillColor=none;align=left;verticalAlign=top;spacingLeft=4;spacingRight=4;overflow=hidden;rotatable=0;points=[[0,0.5],[1,0.5]];portConstraint=eastwest;whiteSpace=wrap;html=1;" vertex="1" parent="sycoFVPmuBbPcmt5koh0-117">
          <mxGeometry y="26" width="140" height="26" as="geometry" />
        </mxCell>
        <mxCell id="sycoFVPmuBbPcmt5koh0-130" style="edgeStyle=orthogonalEdgeStyle;rounded=0;orthogonalLoop=1;jettySize=auto;html=1;exitX=1;exitY=0.5;exitDx=0;exitDy=0;entryX=0;entryY=0.5;entryDx=0;entryDy=0;endArrow=block;endFill=0;endSize=15;" edge="1" parent="1" source="sycoFVPmuBbPcmt5koh0-116" target="sycoFVPmuBbPcmt5koh0-117">
          <mxGeometry relative="1" as="geometry">
            <Array as="points">
              <mxPoint x="320" y="-101" />
              <mxPoint x="320" y="68" />
              <mxPoint x="340" y="68" />
              <mxPoint x="340" y="-114" />
            </Array>
          </mxGeometry>
        </mxCell>
        <mxCell id="sycoFVPmuBbPcmt5koh0-133" style="edgeStyle=orthogonalEdgeStyle;rounded=0;orthogonalLoop=1;jettySize=auto;html=1;endArrow=none;endFill=0;targetPerimeterSpacing=1;endSize=15;exitX=1;exitY=0.5;exitDx=0;exitDy=0;" edge="1" parent="1" source="sycoFVPmuBbPcmt5koh0-108">
          <mxGeometry relative="1" as="geometry">
            <mxPoint x="222" y="95" as="sourcePoint" />
            <mxPoint x="340" y="30" as="targetPoint" />
            <Array as="points">
              <mxPoint x="220" y="95" />
              <mxPoint x="320" y="95" />
              <mxPoint x="320" y="68" />
            </Array>
          </mxGeometry>
        </mxCell>
        <mxCell id="sycoFVPmuBbPcmt5koh0-135" value="Canvas" style="swimlane;fontStyle=0;childLayout=stackLayout;horizontal=1;startSize=26;fillColor=none;horizontalStack=0;resizeParent=1;resizeParentMax=0;resizeLast=0;collapsible=1;marginBottom=0;whiteSpace=wrap;html=1;" vertex="1" parent="1">
          <mxGeometry x="80" y="220" width="180" height="104" as="geometry" />
        </mxCell>
        <mxCell id="sycoFVPmuBbPcmt5koh0-143" value="+ получение изображения" style="text;strokeColor=none;fillColor=none;align=left;verticalAlign=top;spacingLeft=4;spacingRight=4;overflow=hidden;rotatable=0;points=[[0,0.5],[1,0.5]];portConstraint=eastwest;whiteSpace=wrap;html=1;" vertex="1" parent="sycoFVPmuBbPcmt5koh0-135">
          <mxGeometry y="26" width="180" height="26" as="geometry" />
        </mxCell>
        <mxCell id="sycoFVPmuBbPcmt5koh0-141" value="+ установка изображения" style="text;strokeColor=none;fillColor=none;align=left;verticalAlign=top;spacingLeft=4;spacingRight=4;overflow=hidden;rotatable=0;points=[[0,0.5],[1,0.5]];portConstraint=eastwest;whiteSpace=wrap;html=1;" vertex="1" parent="sycoFVPmuBbPcmt5koh0-135">
          <mxGeometry y="52" width="180" height="26" as="geometry" />
        </mxCell>
        <mxCell id="sycoFVPmuBbPcmt5koh0-302" value="+ очистка" style="text;strokeColor=none;fillColor=none;align=left;verticalAlign=top;spacingLeft=4;spacingRight=4;overflow=hidden;rotatable=0;points=[[0,0.5],[1,0.5]];portConstraint=eastwest;whiteSpace=wrap;html=1;" vertex="1" parent="sycoFVPmuBbPcmt5koh0-135">
          <mxGeometry y="78" width="180" height="26" as="geometry" />
        </mxCell>
        <mxCell id="sycoFVPmuBbPcmt5koh0-304" style="edgeStyle=orthogonalEdgeStyle;rounded=0;orthogonalLoop=1;jettySize=auto;html=1;endArrow=diamondThin;endFill=1;endSize=15;" edge="1" parent="1" source="sycoFVPmuBbPcmt5koh0-150" target="sycoFVPmuBbPcmt5koh0-191">
          <mxGeometry relative="1" as="geometry">
            <Array as="points">
              <mxPoint x="940" y="440" />
              <mxPoint x="414" y="440" />
            </Array>
          </mxGeometry>
        </mxCell>
        <mxCell id="sycoFVPmuBbPcmt5koh0-150" value="Model" style="swimlane;fontStyle=0;childLayout=stackLayout;horizontal=1;startSize=26;fillColor=none;horizontalStack=0;resizeParent=1;resizeParentMax=0;resizeLast=0;collapsible=1;marginBottom=0;whiteSpace=wrap;html=1;" vertex="1" parent="1">
          <mxGeometry x="880" y="465" width="140" height="104" as="geometry" />
        </mxCell>
        <mxCell id="sycoFVPmuBbPcmt5koh0-151" value="+ получение точек" style="text;strokeColor=none;fillColor=none;align=left;verticalAlign=top;spacingLeft=4;spacingRight=4;overflow=hidden;rotatable=0;points=[[0,0.5],[1,0.5]];portConstraint=eastwest;whiteSpace=wrap;html=1;" vertex="1" parent="sycoFVPmuBbPcmt5koh0-150">
          <mxGeometry y="26" width="140" height="26" as="geometry" />
        </mxCell>
        <mxCell id="sycoFVPmuBbPcmt5koh0-152" value="+ получение ребер" style="text;strokeColor=none;fillColor=none;align=left;verticalAlign=top;spacingLeft=4;spacingRight=4;overflow=hidden;rotatable=0;points=[[0,0.5],[1,0.5]];portConstraint=eastwest;whiteSpace=wrap;html=1;" vertex="1" parent="sycoFVPmuBbPcmt5koh0-150">
          <mxGeometry y="52" width="140" height="26" as="geometry" />
        </mxCell>
        <mxCell id="sycoFVPmuBbPcmt5koh0-155" value="+ получение полигонов" style="text;strokeColor=none;fillColor=none;align=left;verticalAlign=top;spacingLeft=4;spacingRight=4;overflow=hidden;rotatable=0;points=[[0,0.5],[1,0.5]];portConstraint=eastwest;whiteSpace=wrap;html=1;" vertex="1" parent="sycoFVPmuBbPcmt5koh0-150">
          <mxGeometry y="78" width="140" height="26" as="geometry" />
        </mxCell>
        <mxCell id="sycoFVPmuBbPcmt5koh0-171" style="edgeStyle=orthogonalEdgeStyle;rounded=0;orthogonalLoop=1;jettySize=auto;html=1;exitX=0.5;exitY=0;exitDx=0;exitDy=0;endArrow=block;endFill=0;endSize=15;" edge="1" parent="1" source="sycoFVPmuBbPcmt5koh0-159" target="sycoFVPmuBbPcmt5koh0-150">
          <mxGeometry relative="1" as="geometry">
            <mxPoint x="950" y="580" as="targetPoint" />
            <Array as="points">
              <mxPoint x="790" y="600" />
              <mxPoint x="790" y="590" />
              <mxPoint x="950" y="590" />
            </Array>
          </mxGeometry>
        </mxCell>
        <mxCell id="sycoFVPmuBbPcmt5koh0-159" value="Cube" style="swimlane;fontStyle=0;childLayout=stackLayout;horizontal=1;startSize=26;fillColor=none;horizontalStack=0;resizeParent=1;resizeParentMax=0;resizeLast=0;collapsible=1;marginBottom=0;whiteSpace=wrap;html=1;" vertex="1" parent="1">
          <mxGeometry x="730" y="600" width="140" height="104" as="geometry" />
        </mxCell>
        <mxCell id="sycoFVPmuBbPcmt5koh0-160" value="+ получение точек" style="text;strokeColor=none;fillColor=none;align=left;verticalAlign=top;spacingLeft=4;spacingRight=4;overflow=hidden;rotatable=0;points=[[0,0.5],[1,0.5]];portConstraint=eastwest;whiteSpace=wrap;html=1;" vertex="1" parent="sycoFVPmuBbPcmt5koh0-159">
          <mxGeometry y="26" width="140" height="26" as="geometry" />
        </mxCell>
        <mxCell id="sycoFVPmuBbPcmt5koh0-161" value="+ получение ребер" style="text;strokeColor=none;fillColor=none;align=left;verticalAlign=top;spacingLeft=4;spacingRight=4;overflow=hidden;rotatable=0;points=[[0,0.5],[1,0.5]];portConstraint=eastwest;whiteSpace=wrap;html=1;" vertex="1" parent="sycoFVPmuBbPcmt5koh0-159">
          <mxGeometry y="52" width="140" height="26" as="geometry" />
        </mxCell>
        <mxCell id="sycoFVPmuBbPcmt5koh0-162" value="+ получение полигонов" style="text;strokeColor=none;fillColor=none;align=left;verticalAlign=top;spacingLeft=4;spacingRight=4;overflow=hidden;rotatable=0;points=[[0,0.5],[1,0.5]];portConstraint=eastwest;whiteSpace=wrap;html=1;" vertex="1" parent="sycoFVPmuBbPcmt5koh0-159">
          <mxGeometry y="78" width="140" height="26" as="geometry" />
        </mxCell>
        <mxCell id="sycoFVPmuBbPcmt5koh0-288" style="edgeStyle=orthogonalEdgeStyle;rounded=0;orthogonalLoop=1;jettySize=auto;html=1;exitX=0.5;exitY=0;exitDx=0;exitDy=0;endArrow=none;endFill=0;" edge="1" parent="1" source="sycoFVPmuBbPcmt5koh0-163">
          <mxGeometry relative="1" as="geometry">
            <mxPoint x="950" y="590" as="targetPoint" />
            <Array as="points">
              <mxPoint x="950" y="600" />
              <mxPoint x="950" y="600" />
            </Array>
          </mxGeometry>
        </mxCell>
        <mxCell id="sycoFVPmuBbPcmt5koh0-163" value="DirectPrism" style="swimlane;fontStyle=0;childLayout=stackLayout;horizontal=1;startSize=26;fillColor=none;horizontalStack=0;resizeParent=1;resizeParentMax=0;resizeLast=0;collapsible=1;marginBottom=0;whiteSpace=wrap;html=1;" vertex="1" parent="1">
          <mxGeometry x="880" y="600" width="140" height="104" as="geometry" />
        </mxCell>
        <mxCell id="sycoFVPmuBbPcmt5koh0-164" value="+ получение точек" style="text;strokeColor=none;fillColor=none;align=left;verticalAlign=top;spacingLeft=4;spacingRight=4;overflow=hidden;rotatable=0;points=[[0,0.5],[1,0.5]];portConstraint=eastwest;whiteSpace=wrap;html=1;" vertex="1" parent="sycoFVPmuBbPcmt5koh0-163">
          <mxGeometry y="26" width="140" height="26" as="geometry" />
        </mxCell>
        <mxCell id="sycoFVPmuBbPcmt5koh0-165" value="+ получение ребер" style="text;strokeColor=none;fillColor=none;align=left;verticalAlign=top;spacingLeft=4;spacingRight=4;overflow=hidden;rotatable=0;points=[[0,0.5],[1,0.5]];portConstraint=eastwest;whiteSpace=wrap;html=1;" vertex="1" parent="sycoFVPmuBbPcmt5koh0-163">
          <mxGeometry y="52" width="140" height="26" as="geometry" />
        </mxCell>
        <mxCell id="sycoFVPmuBbPcmt5koh0-166" value="+ получение полигонов" style="text;strokeColor=none;fillColor=none;align=left;verticalAlign=top;spacingLeft=4;spacingRight=4;overflow=hidden;rotatable=0;points=[[0,0.5],[1,0.5]];portConstraint=eastwest;whiteSpace=wrap;html=1;" vertex="1" parent="sycoFVPmuBbPcmt5koh0-163">
          <mxGeometry y="78" width="140" height="26" as="geometry" />
        </mxCell>
        <mxCell id="sycoFVPmuBbPcmt5koh0-173" style="edgeStyle=orthogonalEdgeStyle;rounded=0;orthogonalLoop=1;jettySize=auto;html=1;exitX=0.5;exitY=0;exitDx=0;exitDy=0;endArrow=none;endFill=0;" edge="1" parent="1" source="sycoFVPmuBbPcmt5koh0-167">
          <mxGeometry relative="1" as="geometry">
            <mxPoint x="880" y="590" as="targetPoint" />
            <Array as="points">
              <mxPoint x="1090" y="590" />
              <mxPoint x="880" y="590" />
            </Array>
          </mxGeometry>
        </mxCell>
        <mxCell id="sycoFVPmuBbPcmt5koh0-167" value="Pyramid" style="swimlane;fontStyle=0;childLayout=stackLayout;horizontal=1;startSize=26;fillColor=none;horizontalStack=0;resizeParent=1;resizeParentMax=0;resizeLast=0;collapsible=1;marginBottom=0;whiteSpace=wrap;html=1;" vertex="1" parent="1">
          <mxGeometry x="1030" y="600" width="140" height="104" as="geometry" />
        </mxCell>
        <mxCell id="sycoFVPmuBbPcmt5koh0-168" value="+ получение точек" style="text;strokeColor=none;fillColor=none;align=left;verticalAlign=top;spacingLeft=4;spacingRight=4;overflow=hidden;rotatable=0;points=[[0,0.5],[1,0.5]];portConstraint=eastwest;whiteSpace=wrap;html=1;" vertex="1" parent="sycoFVPmuBbPcmt5koh0-167">
          <mxGeometry y="26" width="140" height="26" as="geometry" />
        </mxCell>
        <mxCell id="sycoFVPmuBbPcmt5koh0-169" value="+ получение ребер" style="text;strokeColor=none;fillColor=none;align=left;verticalAlign=top;spacingLeft=4;spacingRight=4;overflow=hidden;rotatable=0;points=[[0,0.5],[1,0.5]];portConstraint=eastwest;whiteSpace=wrap;html=1;" vertex="1" parent="sycoFVPmuBbPcmt5koh0-167">
          <mxGeometry y="52" width="140" height="26" as="geometry" />
        </mxCell>
        <mxCell id="sycoFVPmuBbPcmt5koh0-170" value="+ получение полигонов" style="text;strokeColor=none;fillColor=none;align=left;verticalAlign=top;spacingLeft=4;spacingRight=4;overflow=hidden;rotatable=0;points=[[0,0.5],[1,0.5]];portConstraint=eastwest;whiteSpace=wrap;html=1;" vertex="1" parent="sycoFVPmuBbPcmt5koh0-167">
          <mxGeometry y="78" width="140" height="26" as="geometry" />
        </mxCell>
        <mxCell id="sycoFVPmuBbPcmt5koh0-276" style="edgeStyle=orthogonalEdgeStyle;rounded=0;orthogonalLoop=1;jettySize=auto;html=1;exitX=0.5;exitY=0;exitDx=0;exitDy=0;endArrow=diamondThin;endFill=1;endSize=15;" edge="1" parent="1" source="sycoFVPmuBbPcmt5koh0-179" target="sycoFVPmuBbPcmt5koh0-184">
          <mxGeometry relative="1" as="geometry" />
        </mxCell>
        <mxCell id="sycoFVPmuBbPcmt5koh0-179" value="Light" style="swimlane;fontStyle=0;childLayout=stackLayout;horizontal=1;startSize=26;fillColor=none;horizontalStack=0;resizeParent=1;resizeParentMax=0;resizeLast=0;collapsible=1;marginBottom=0;whiteSpace=wrap;html=1;" vertex="1" parent="1">
          <mxGeometry x="543.75" y="600" width="172.5" height="78" as="geometry">
            <mxRectangle x="930" y="865" width="70" height="30" as="alternateBounds" />
          </mxGeometry>
        </mxCell>
        <mxCell id="sycoFVPmuBbPcmt5koh0-211" value="+ получение&amp;nbsp;интенсивности" style="text;strokeColor=none;fillColor=none;align=left;verticalAlign=top;spacingLeft=4;spacingRight=4;overflow=hidden;rotatable=0;points=[[0,0.5],[1,0.5]];portConstraint=eastwest;whiteSpace=wrap;html=1;" vertex="1" parent="sycoFVPmuBbPcmt5koh0-179">
          <mxGeometry y="26" width="172.5" height="26" as="geometry" />
        </mxCell>
        <mxCell id="sycoFVPmuBbPcmt5koh0-212" value="+ изменение интенсивности" style="text;strokeColor=none;fillColor=none;align=left;verticalAlign=top;spacingLeft=4;spacingRight=4;overflow=hidden;rotatable=0;points=[[0,0.5],[1,0.5]];portConstraint=eastwest;whiteSpace=wrap;html=1;" vertex="1" parent="sycoFVPmuBbPcmt5koh0-179">
          <mxGeometry y="52" width="172.5" height="26" as="geometry" />
        </mxCell>
        <mxCell id="sycoFVPmuBbPcmt5koh0-305" style="edgeStyle=none;rounded=0;orthogonalLoop=1;jettySize=auto;html=1;endArrow=none;endFill=0;" edge="1" parent="1" source="sycoFVPmuBbPcmt5koh0-184">
          <mxGeometry relative="1" as="geometry">
            <mxPoint x="630" y="440" as="targetPoint" />
          </mxGeometry>
        </mxCell>
        <mxCell id="sycoFVPmuBbPcmt5koh0-184" value="LightSystem" style="swimlane;fontStyle=0;childLayout=stackLayout;horizontal=1;startSize=26;fillColor=none;horizontalStack=0;resizeParent=1;resizeParentMax=0;resizeLast=0;collapsible=1;marginBottom=0;whiteSpace=wrap;html=1;" vertex="1" parent="1">
          <mxGeometry x="515" y="465" width="230" height="104" as="geometry">
            <mxRectangle x="930" y="720" width="110" height="30" as="alternateBounds" />
          </mxGeometry>
        </mxCell>
        <mxCell id="sycoFVPmuBbPcmt5koh0-185" value="+ получение текущего источника света" style="text;strokeColor=none;fillColor=none;align=left;verticalAlign=top;spacingLeft=4;spacingRight=4;overflow=hidden;rotatable=0;points=[[0,0.5],[1,0.5]];portConstraint=eastwest;whiteSpace=wrap;html=1;" vertex="1" parent="sycoFVPmuBbPcmt5koh0-184">
          <mxGeometry y="26" width="230" height="26" as="geometry" />
        </mxCell>
        <mxCell id="sycoFVPmuBbPcmt5koh0-186" value="+ установка источника света" style="text;strokeColor=none;fillColor=none;align=left;verticalAlign=top;spacingLeft=4;spacingRight=4;overflow=hidden;rotatable=0;points=[[0,0.5],[1,0.5]];portConstraint=eastwest;whiteSpace=wrap;html=1;" vertex="1" parent="sycoFVPmuBbPcmt5koh0-184">
          <mxGeometry y="52" width="230" height="26" as="geometry" />
        </mxCell>
        <mxCell id="sycoFVPmuBbPcmt5koh0-209" value="+ перемещение источника света" style="text;strokeColor=none;fillColor=none;align=left;verticalAlign=top;spacingLeft=4;spacingRight=4;overflow=hidden;rotatable=0;points=[[0,0.5],[1,0.5]];portConstraint=eastwest;whiteSpace=wrap;html=1;" vertex="1" parent="sycoFVPmuBbPcmt5koh0-184">
          <mxGeometry y="78" width="230" height="26" as="geometry" />
        </mxCell>
        <mxCell id="sycoFVPmuBbPcmt5koh0-294" style="edgeStyle=orthogonalEdgeStyle;rounded=0;orthogonalLoop=1;jettySize=auto;html=1;endArrow=diamondThin;endFill=1;endSize=15;" edge="1" parent="1" source="sycoFVPmuBbPcmt5koh0-191" target="sycoFVPmuBbPcmt5koh0-135">
          <mxGeometry relative="1" as="geometry">
            <Array as="points">
              <mxPoint x="380" y="440" />
              <mxPoint x="170" y="440" />
            </Array>
          </mxGeometry>
        </mxCell>
        <mxCell id="sycoFVPmuBbPcmt5koh0-191" value="Scene" style="swimlane;fontStyle=0;childLayout=stackLayout;horizontal=1;startSize=26;fillColor=none;horizontalStack=0;resizeParent=1;resizeParentMax=0;resizeLast=0;collapsible=1;marginBottom=0;whiteSpace=wrap;html=1;" vertex="1" parent="1">
          <mxGeometry x="323.5" y="220" width="180" height="156" as="geometry" />
        </mxCell>
        <mxCell id="sycoFVPmuBbPcmt5koh0-197" value="+ добавление модели" style="text;strokeColor=none;fillColor=none;align=left;verticalAlign=top;spacingLeft=4;spacingRight=4;overflow=hidden;rotatable=0;points=[[0,0.5],[1,0.5]];portConstraint=eastwest;whiteSpace=wrap;html=1;" vertex="1" parent="sycoFVPmuBbPcmt5koh0-191">
          <mxGeometry y="26" width="180" height="26" as="geometry" />
        </mxCell>
        <mxCell id="sycoFVPmuBbPcmt5koh0-215" value="+ удаление модели" style="text;strokeColor=none;fillColor=none;align=left;verticalAlign=top;spacingLeft=4;spacingRight=4;overflow=hidden;rotatable=0;points=[[0,0.5],[1,0.5]];portConstraint=eastwest;whiteSpace=wrap;html=1;" vertex="1" parent="sycoFVPmuBbPcmt5koh0-191">
          <mxGeometry y="52" width="180" height="26" as="geometry" />
        </mxCell>
        <mxCell id="sycoFVPmuBbPcmt5koh0-216" value="+ изменение модели" style="text;strokeColor=none;fillColor=none;align=left;verticalAlign=top;spacingLeft=4;spacingRight=4;overflow=hidden;rotatable=0;points=[[0,0.5],[1,0.5]];portConstraint=eastwest;whiteSpace=wrap;html=1;" vertex="1" parent="sycoFVPmuBbPcmt5koh0-191">
          <mxGeometry y="78" width="180" height="26" as="geometry" />
        </mxCell>
        <mxCell id="sycoFVPmuBbPcmt5koh0-214" value="+ перемещение модели" style="text;strokeColor=none;fillColor=none;align=left;verticalAlign=top;spacingLeft=4;spacingRight=4;overflow=hidden;rotatable=0;points=[[0,0.5],[1,0.5]];portConstraint=eastwest;whiteSpace=wrap;html=1;" vertex="1" parent="sycoFVPmuBbPcmt5koh0-191">
          <mxGeometry y="104" width="180" height="26" as="geometry" />
        </mxCell>
        <mxCell id="sycoFVPmuBbPcmt5koh0-196" value="+ очистка" style="text;strokeColor=none;fillColor=none;align=left;verticalAlign=top;spacingLeft=4;spacingRight=4;overflow=hidden;rotatable=0;points=[[0,0.5],[1,0.5]];portConstraint=eastwest;whiteSpace=wrap;html=1;" vertex="1" parent="sycoFVPmuBbPcmt5koh0-191">
          <mxGeometry y="130" width="180" height="26" as="geometry" />
        </mxCell>
        <mxCell id="sycoFVPmuBbPcmt5koh0-279" style="edgeStyle=orthogonalEdgeStyle;rounded=0;orthogonalLoop=1;jettySize=auto;html=1;endArrow=diamondThin;endFill=1;endSize=15;" edge="1" parent="1" source="sycoFVPmuBbPcmt5koh0-202" target="sycoFVPmuBbPcmt5koh0-179">
          <mxGeometry relative="1" as="geometry">
            <Array as="points">
              <mxPoint x="950" y="720" />
              <mxPoint x="630" y="720" />
            </Array>
          </mxGeometry>
        </mxCell>
        <mxCell id="sycoFVPmuBbPcmt5koh0-202" value="Camera" style="swimlane;fontStyle=0;childLayout=stackLayout;horizontal=1;startSize=26;fillColor=none;horizontalStack=0;resizeParent=1;resizeParentMax=0;resizeLast=0;collapsible=1;marginBottom=0;whiteSpace=wrap;html=1;" vertex="1" parent="1">
          <mxGeometry x="860.5" y="740" width="159" height="130" as="geometry" />
        </mxCell>
        <mxCell id="sycoFVPmuBbPcmt5koh0-206" value="+ получение положения" style="text;strokeColor=none;fillColor=none;align=left;verticalAlign=top;spacingLeft=4;spacingRight=4;overflow=hidden;rotatable=0;points=[[0,0.5],[1,0.5]];portConstraint=eastwest;whiteSpace=wrap;html=1;" vertex="1" parent="sycoFVPmuBbPcmt5koh0-202">
          <mxGeometry y="26" width="159" height="26" as="geometry" />
        </mxCell>
        <mxCell id="sycoFVPmuBbPcmt5koh0-218" value="+ изменение направления" style="text;strokeColor=none;fillColor=none;align=left;verticalAlign=top;spacingLeft=4;spacingRight=4;overflow=hidden;rotatable=0;points=[[0,0.5],[1,0.5]];portConstraint=eastwest;whiteSpace=wrap;html=1;" vertex="1" parent="sycoFVPmuBbPcmt5koh0-202">
          <mxGeometry y="52" width="159" height="26" as="geometry" />
        </mxCell>
        <mxCell id="sycoFVPmuBbPcmt5koh0-217" value="+ получение&amp;nbsp;направления" style="text;strokeColor=none;fillColor=none;align=left;verticalAlign=top;spacingLeft=4;spacingRight=4;overflow=hidden;rotatable=0;points=[[0,0.5],[1,0.5]];portConstraint=eastwest;whiteSpace=wrap;html=1;" vertex="1" parent="sycoFVPmuBbPcmt5koh0-202">
          <mxGeometry y="78" width="159" height="26" as="geometry" />
        </mxCell>
        <mxCell id="sycoFVPmuBbPcmt5koh0-207" value="+ изменение&amp;nbsp;положения" style="text;strokeColor=none;fillColor=none;align=left;verticalAlign=top;spacingLeft=4;spacingRight=4;overflow=hidden;rotatable=0;points=[[0,0.5],[1,0.5]];portConstraint=eastwest;whiteSpace=wrap;html=1;" vertex="1" parent="sycoFVPmuBbPcmt5koh0-202">
          <mxGeometry y="104" width="159" height="26" as="geometry" />
        </mxCell>
        <mxCell id="sycoFVPmuBbPcmt5koh0-219" value="ViewingFrustum" style="swimlane;fontStyle=0;childLayout=stackLayout;horizontal=1;startSize=26;fillColor=none;horizontalStack=0;resizeParent=1;resizeParentMax=0;resizeLast=0;collapsible=1;marginBottom=0;whiteSpace=wrap;html=1;" vertex="1" parent="1">
          <mxGeometry x="520" y="740" width="280" height="130" as="geometry" />
        </mxCell>
        <mxCell id="sycoFVPmuBbPcmt5koh0-220" value="+ получение&amp;nbsp;матрицы пространства камеры" style="text;strokeColor=none;fillColor=none;align=left;verticalAlign=top;spacingLeft=4;spacingRight=4;overflow=hidden;rotatable=0;points=[[0,0.5],[1,0.5]];portConstraint=eastwest;whiteSpace=wrap;html=1;" vertex="1" parent="sycoFVPmuBbPcmt5koh0-219">
          <mxGeometry y="26" width="280" height="26" as="geometry" />
        </mxCell>
        <mxCell id="sycoFVPmuBbPcmt5koh0-221" value="+ получение матрицы&amp;nbsp;пространства отсечения" style="text;strokeColor=none;fillColor=none;align=left;verticalAlign=top;spacingLeft=4;spacingRight=4;overflow=hidden;rotatable=0;points=[[0,0.5],[1,0.5]];portConstraint=eastwest;whiteSpace=wrap;html=1;" vertex="1" parent="sycoFVPmuBbPcmt5koh0-219">
          <mxGeometry y="52" width="280" height="26" as="geometry" />
        </mxCell>
        <mxCell id="sycoFVPmuBbPcmt5koh0-222" value="+ получение&amp;nbsp;расстояния до ближней плоскости" style="text;strokeColor=none;fillColor=none;align=left;verticalAlign=top;spacingLeft=4;spacingRight=4;overflow=hidden;rotatable=0;points=[[0,0.5],[1,0.5]];portConstraint=eastwest;whiteSpace=wrap;html=1;" vertex="1" parent="sycoFVPmuBbPcmt5koh0-219">
          <mxGeometry y="78" width="280" height="26" as="geometry" />
        </mxCell>
        <mxCell id="sycoFVPmuBbPcmt5koh0-223" value="+ получение расстояния&amp;nbsp;до дальней плоскости" style="text;strokeColor=none;fillColor=none;align=left;verticalAlign=top;spacingLeft=4;spacingRight=4;overflow=hidden;rotatable=0;points=[[0,0.5],[1,0.5]];portConstraint=eastwest;whiteSpace=wrap;html=1;" vertex="1" parent="sycoFVPmuBbPcmt5koh0-219">
          <mxGeometry y="104" width="280" height="26" as="geometry" />
        </mxCell>
        <mxCell id="sycoFVPmuBbPcmt5koh0-282" style="edgeStyle=orthogonalEdgeStyle;rounded=0;orthogonalLoop=1;jettySize=auto;html=1;endArrow=block;endFill=0;endSize=15;" edge="1" parent="1" source="sycoFVPmuBbPcmt5koh0-234" target="sycoFVPmuBbPcmt5koh0-219">
          <mxGeometry relative="1" as="geometry">
            <Array as="points">
              <mxPoint x="183" y="920" />
              <mxPoint x="650" y="920" />
            </Array>
          </mxGeometry>
        </mxCell>
        <mxCell id="sycoFVPmuBbPcmt5koh0-234" value="ViewingFrustumZBuffer" style="swimlane;fontStyle=0;childLayout=stackLayout;horizontal=1;startSize=26;fillColor=none;horizontalStack=0;resizeParent=1;resizeParentMax=0;resizeLast=0;collapsible=1;marginBottom=0;whiteSpace=wrap;html=1;" vertex="1" parent="1">
          <mxGeometry x="90" y="828" width="160" height="78" as="geometry" />
        </mxCell>
        <mxCell id="sycoFVPmuBbPcmt5koh0-239" value="+ получение изображения" style="text;strokeColor=none;fillColor=none;align=left;verticalAlign=top;spacingLeft=4;spacingRight=4;overflow=hidden;rotatable=0;points=[[0,0.5],[1,0.5]];portConstraint=eastwest;whiteSpace=wrap;html=1;" vertex="1" parent="sycoFVPmuBbPcmt5koh0-234">
          <mxGeometry y="26" width="160" height="26" as="geometry" />
        </mxCell>
        <mxCell id="sycoFVPmuBbPcmt5koh0-266" value="+ рендеринг сцены" style="text;strokeColor=none;fillColor=none;align=left;verticalAlign=top;spacingLeft=4;spacingRight=4;overflow=hidden;rotatable=0;points=[[0,0.5],[1,0.5]];portConstraint=eastwest;whiteSpace=wrap;html=1;" vertex="1" parent="sycoFVPmuBbPcmt5koh0-234">
          <mxGeometry y="52" width="160" height="26" as="geometry" />
        </mxCell>
        <mxCell id="sycoFVPmuBbPcmt5koh0-256" style="edgeStyle=none;rounded=0;orthogonalLoop=1;jettySize=auto;html=1;entryX=1;entryY=0.5;entryDx=0;entryDy=0;endSize=15;endArrow=block;endFill=0;" edge="1" parent="1" source="sycoFVPmuBbPcmt5koh0-240" target="sycoFVPmuBbPcmt5koh0-234">
          <mxGeometry relative="1" as="geometry" />
        </mxCell>
        <mxCell id="sycoFVPmuBbPcmt5koh0-240" value="ViewingFrustumParallelZBuffer" style="swimlane;fontStyle=0;childLayout=stackLayout;horizontal=1;startSize=26;fillColor=none;horizontalStack=0;resizeParent=1;resizeParentMax=0;resizeLast=0;collapsible=1;marginBottom=0;whiteSpace=wrap;html=1;" vertex="1" parent="1">
          <mxGeometry x="303.5" y="828" width="180" height="78" as="geometry" />
        </mxCell>
        <mxCell id="sycoFVPmuBbPcmt5koh0-241" value="+ получение изображения" style="text;strokeColor=none;fillColor=none;align=left;verticalAlign=top;spacingLeft=4;spacingRight=4;overflow=hidden;rotatable=0;points=[[0,0.5],[1,0.5]];portConstraint=eastwest;whiteSpace=wrap;html=1;" vertex="1" parent="sycoFVPmuBbPcmt5koh0-240">
          <mxGeometry y="26" width="180" height="26" as="geometry" />
        </mxCell>
        <mxCell id="sycoFVPmuBbPcmt5koh0-267" value="+ рендеринг сцены" style="text;strokeColor=none;fillColor=none;align=left;verticalAlign=top;spacingLeft=4;spacingRight=4;overflow=hidden;rotatable=0;points=[[0,0.5],[1,0.5]];portConstraint=eastwest;whiteSpace=wrap;html=1;" vertex="1" parent="sycoFVPmuBbPcmt5koh0-240">
          <mxGeometry y="52" width="180" height="26" as="geometry" />
        </mxCell>
        <mxCell id="sycoFVPmuBbPcmt5koh0-263" style="edgeStyle=orthogonalEdgeStyle;rounded=0;orthogonalLoop=1;jettySize=auto;html=1;entryX=0.5;entryY=0;entryDx=0;entryDy=0;endSize=15;endArrow=block;endFill=0;exitX=0.581;exitY=0.997;exitDx=0;exitDy=0;exitPerimeter=0;" edge="1" parent="1" source="sycoFVPmuBbPcmt5koh0-270" target="sycoFVPmuBbPcmt5koh0-246">
          <mxGeometry relative="1" as="geometry">
            <mxPoint x="184" y="691.9999999999995" as="sourcePoint" />
            <mxPoint x="393.5" y="723" as="targetPoint" />
            <Array as="points">
              <mxPoint x="184" y="687" />
              <mxPoint x="184" y="695" />
              <mxPoint x="394" y="695" />
            </Array>
          </mxGeometry>
        </mxCell>
        <mxCell id="sycoFVPmuBbPcmt5koh0-242" value="ViewingFrustumShadows" style="swimlane;fontStyle=0;childLayout=stackLayout;horizontal=1;startSize=26;fillColor=none;horizontalStack=0;resizeParent=1;resizeParentMax=0;resizeLast=0;collapsible=1;marginBottom=0;whiteSpace=wrap;html=1;" vertex="1" parent="1">
          <mxGeometry x="90" y="609" width="160" height="78" as="geometry" />
        </mxCell>
        <mxCell id="sycoFVPmuBbPcmt5koh0-243" value="+ получение изображения" style="text;strokeColor=none;fillColor=none;align=left;verticalAlign=top;spacingLeft=4;spacingRight=4;overflow=hidden;rotatable=0;points=[[0,0.5],[1,0.5]];portConstraint=eastwest;whiteSpace=wrap;html=1;" vertex="1" parent="sycoFVPmuBbPcmt5koh0-242">
          <mxGeometry y="26" width="160" height="26" as="geometry" />
        </mxCell>
        <mxCell id="sycoFVPmuBbPcmt5koh0-270" value="+ рендеринг сцены" style="text;strokeColor=none;fillColor=none;align=left;verticalAlign=top;spacingLeft=4;spacingRight=4;overflow=hidden;rotatable=0;points=[[0,0.5],[1,0.5]];portConstraint=eastwest;whiteSpace=wrap;html=1;" vertex="1" parent="sycoFVPmuBbPcmt5koh0-242">
          <mxGeometry y="52" width="160" height="26" as="geometry" />
        </mxCell>
        <mxCell id="sycoFVPmuBbPcmt5koh0-262" style="edgeStyle=orthogonalEdgeStyle;rounded=0;orthogonalLoop=1;jettySize=auto;html=1;entryX=0.5;entryY=0;entryDx=0;entryDy=0;endArrow=block;endFill=0;endSize=15;exitX=0.584;exitY=0.982;exitDx=0;exitDy=0;exitPerimeter=0;" edge="1" parent="1" source="sycoFVPmuBbPcmt5koh0-268" target="sycoFVPmuBbPcmt5koh0-240">
          <mxGeometry relative="1" as="geometry">
            <mxPoint x="184" y="802" as="sourcePoint" />
            <mxPoint x="393.5" y="834" as="targetPoint" />
            <Array as="points">
              <mxPoint x="183" y="806" />
              <mxPoint x="393" y="806" />
            </Array>
          </mxGeometry>
        </mxCell>
        <mxCell id="sycoFVPmuBbPcmt5koh0-244" value="ViewingFrustumShading" style="swimlane;fontStyle=0;childLayout=stackLayout;horizontal=1;startSize=26;fillColor=none;horizontalStack=0;resizeParent=1;resizeParentMax=0;resizeLast=0;collapsible=1;marginBottom=0;whiteSpace=wrap;html=1;" vertex="1" parent="1">
          <mxGeometry x="90" y="718" width="160" height="78" as="geometry" />
        </mxCell>
        <mxCell id="sycoFVPmuBbPcmt5koh0-245" value="+ получение изображения" style="text;strokeColor=none;fillColor=none;align=left;verticalAlign=top;spacingLeft=4;spacingRight=4;overflow=hidden;rotatable=0;points=[[0,0.5],[1,0.5]];portConstraint=eastwest;whiteSpace=wrap;html=1;" vertex="1" parent="sycoFVPmuBbPcmt5koh0-244">
          <mxGeometry y="26" width="160" height="26" as="geometry" />
        </mxCell>
        <mxCell id="sycoFVPmuBbPcmt5koh0-268" value="+ рендеринг сцены" style="text;strokeColor=none;fillColor=none;align=left;verticalAlign=top;spacingLeft=4;spacingRight=4;overflow=hidden;rotatable=0;points=[[0,0.5],[1,0.5]];portConstraint=eastwest;whiteSpace=wrap;html=1;" vertex="1" parent="sycoFVPmuBbPcmt5koh0-244">
          <mxGeometry y="52" width="160" height="26" as="geometry" />
        </mxCell>
        <mxCell id="sycoFVPmuBbPcmt5koh0-259" style="edgeStyle=none;rounded=0;orthogonalLoop=1;jettySize=auto;html=1;entryX=1;entryY=0.5;entryDx=0;entryDy=0;endArrow=block;endFill=0;endSize=15;" edge="1" parent="1" source="sycoFVPmuBbPcmt5koh0-246" target="sycoFVPmuBbPcmt5koh0-244">
          <mxGeometry relative="1" as="geometry" />
        </mxCell>
        <mxCell id="sycoFVPmuBbPcmt5koh0-246" value="ViewingFrustumParallelShading" style="swimlane;fontStyle=0;childLayout=stackLayout;horizontal=1;startSize=26;fillColor=none;horizontalStack=0;resizeParent=1;resizeParentMax=0;resizeLast=0;collapsible=1;marginBottom=0;whiteSpace=wrap;html=1;" vertex="1" parent="1">
          <mxGeometry x="303.5" y="718" width="180" height="78" as="geometry" />
        </mxCell>
        <mxCell id="sycoFVPmuBbPcmt5koh0-247" value="+ получение изображения" style="text;strokeColor=none;fillColor=none;align=left;verticalAlign=top;spacingLeft=4;spacingRight=4;overflow=hidden;rotatable=0;points=[[0,0.5],[1,0.5]];portConstraint=eastwest;whiteSpace=wrap;html=1;" vertex="1" parent="sycoFVPmuBbPcmt5koh0-246">
          <mxGeometry y="26" width="180" height="26" as="geometry" />
        </mxCell>
        <mxCell id="sycoFVPmuBbPcmt5koh0-269" value="+ рендеринг сцены" style="text;strokeColor=none;fillColor=none;align=left;verticalAlign=top;spacingLeft=4;spacingRight=4;overflow=hidden;rotatable=0;points=[[0,0.5],[1,0.5]];portConstraint=eastwest;whiteSpace=wrap;html=1;" vertex="1" parent="sycoFVPmuBbPcmt5koh0-246">
          <mxGeometry y="52" width="180" height="26" as="geometry" />
        </mxCell>
        <mxCell id="sycoFVPmuBbPcmt5koh0-261" style="edgeStyle=none;rounded=0;orthogonalLoop=1;jettySize=auto;html=1;entryX=1;entryY=0.5;entryDx=0;entryDy=0;endArrow=block;endFill=0;endSize=15;" edge="1" parent="1" source="sycoFVPmuBbPcmt5koh0-248" target="sycoFVPmuBbPcmt5koh0-242">
          <mxGeometry relative="1" as="geometry" />
        </mxCell>
        <mxCell id="sycoFVPmuBbPcmt5koh0-248" value="ViewingFrustumParallelShadows" style="swimlane;fontStyle=0;childLayout=stackLayout;horizontal=1;startSize=26;fillColor=none;horizontalStack=0;resizeParent=1;resizeParentMax=0;resizeLast=0;collapsible=1;marginBottom=0;whiteSpace=wrap;html=1;" vertex="1" parent="1">
          <mxGeometry x="303.5" y="609" width="180" height="78" as="geometry" />
        </mxCell>
        <mxCell id="sycoFVPmuBbPcmt5koh0-249" value="+ получение изображения" style="text;strokeColor=none;fillColor=none;align=left;verticalAlign=top;spacingLeft=4;spacingRight=4;overflow=hidden;rotatable=0;points=[[0,0.5],[1,0.5]];portConstraint=eastwest;whiteSpace=wrap;html=1;" vertex="1" parent="sycoFVPmuBbPcmt5koh0-248">
          <mxGeometry y="26" width="180" height="26" as="geometry" />
        </mxCell>
        <mxCell id="sycoFVPmuBbPcmt5koh0-271" value="+ рендеринг сцены" style="text;strokeColor=none;fillColor=none;align=left;verticalAlign=top;spacingLeft=4;spacingRight=4;overflow=hidden;rotatable=0;points=[[0,0.5],[1,0.5]];portConstraint=eastwest;whiteSpace=wrap;html=1;" vertex="1" parent="sycoFVPmuBbPcmt5koh0-248">
          <mxGeometry y="52" width="180" height="26" as="geometry" />
        </mxCell>
        <mxCell id="sycoFVPmuBbPcmt5koh0-295" style="edgeStyle=orthogonalEdgeStyle;rounded=0;orthogonalLoop=1;jettySize=auto;html=1;endArrow=none;endFill=0;" edge="1" parent="1" source="sycoFVPmuBbPcmt5koh0-250" target="sycoFVPmuBbPcmt5koh0-135">
          <mxGeometry relative="1" as="geometry">
            <Array as="points">
              <mxPoint x="170" y="430" />
              <mxPoint x="170" y="430" />
            </Array>
          </mxGeometry>
        </mxCell>
        <mxCell id="sycoFVPmuBbPcmt5koh0-250" value="ViewingSystem" style="swimlane;fontStyle=0;childLayout=stackLayout;horizontal=1;startSize=26;fillColor=none;horizontalStack=0;resizeParent=1;resizeParentMax=0;resizeLast=0;collapsible=1;marginBottom=0;whiteSpace=wrap;html=1;" vertex="1" parent="1">
          <mxGeometry x="80" y="465" width="186.5" height="104" as="geometry" />
        </mxCell>
        <mxCell id="sycoFVPmuBbPcmt5koh0-253" value="+ получение текущей камеры" style="text;strokeColor=none;fillColor=none;align=left;verticalAlign=top;spacingLeft=4;spacingRight=4;overflow=hidden;rotatable=0;points=[[0,0.5],[1,0.5]];portConstraint=eastwest;whiteSpace=wrap;html=1;" vertex="1" parent="sycoFVPmuBbPcmt5koh0-250">
          <mxGeometry y="26" width="186.5" height="26" as="geometry" />
        </mxCell>
        <mxCell id="sycoFVPmuBbPcmt5koh0-252" value="+ установка камеры" style="text;strokeColor=none;fillColor=none;align=left;verticalAlign=top;spacingLeft=4;spacingRight=4;overflow=hidden;rotatable=0;points=[[0,0.5],[1,0.5]];portConstraint=eastwest;whiteSpace=wrap;html=1;" vertex="1" parent="sycoFVPmuBbPcmt5koh0-250">
          <mxGeometry y="52" width="186.5" height="26" as="geometry" />
        </mxCell>
        <mxCell id="sycoFVPmuBbPcmt5koh0-251" value="+ перемещение камеры" style="text;strokeColor=none;fillColor=none;align=left;verticalAlign=top;spacingLeft=4;spacingRight=4;overflow=hidden;rotatable=0;points=[[0,0.5],[1,0.5]];portConstraint=eastwest;whiteSpace=wrap;html=1;" vertex="1" parent="sycoFVPmuBbPcmt5koh0-250">
          <mxGeometry y="78" width="186.5" height="26" as="geometry" />
        </mxCell>
        <mxCell id="sycoFVPmuBbPcmt5koh0-281" style="edgeStyle=orthogonalEdgeStyle;rounded=0;orthogonalLoop=1;jettySize=auto;html=1;endArrow=diamondThin;endFill=1;endSize=15;" edge="1" parent="1" source="sycoFVPmuBbPcmt5koh0-218" target="sycoFVPmuBbPcmt5koh0-219">
          <mxGeometry relative="1" as="geometry" />
        </mxCell>
        <mxCell id="sycoFVPmuBbPcmt5koh0-289" style="edgeStyle=none;rounded=0;orthogonalLoop=1;jettySize=auto;html=1;entryX=0.5;entryY=0;entryDx=0;entryDy=0;endArrow=block;endFill=0;endSize=15;" edge="1" parent="1" source="sycoFVPmuBbPcmt5koh0-283" target="sycoFVPmuBbPcmt5koh0-248">
          <mxGeometry relative="1" as="geometry" />
        </mxCell>
        <mxCell id="sycoFVPmuBbPcmt5koh0-283" value="ViewingFrustumProcessor" style="swimlane;fontStyle=0;childLayout=stackLayout;horizontal=1;startSize=26;fillColor=none;horizontalStack=0;resizeParent=1;resizeParentMax=0;resizeLast=0;collapsible=1;marginBottom=0;whiteSpace=wrap;html=1;" vertex="1" parent="1">
          <mxGeometry x="303.5" y="478" width="176.5" height="78" as="geometry" />
        </mxCell>
        <mxCell id="sycoFVPmuBbPcmt5koh0-284" value="+ получение изображения" style="text;strokeColor=none;fillColor=none;align=left;verticalAlign=top;spacingLeft=4;spacingRight=4;overflow=hidden;rotatable=0;points=[[0,0.5],[1,0.5]];portConstraint=eastwest;whiteSpace=wrap;html=1;" vertex="1" parent="sycoFVPmuBbPcmt5koh0-283">
          <mxGeometry y="26" width="176.5" height="26" as="geometry" />
        </mxCell>
        <mxCell id="sycoFVPmuBbPcmt5koh0-285" value="+ рендеринг сцены" style="text;strokeColor=none;fillColor=none;align=left;verticalAlign=top;spacingLeft=4;spacingRight=4;overflow=hidden;rotatable=0;points=[[0,0.5],[1,0.5]];portConstraint=eastwest;whiteSpace=wrap;html=1;" vertex="1" parent="sycoFVPmuBbPcmt5koh0-283">
          <mxGeometry y="52" width="176.5" height="26" as="geometry" />
        </mxCell>
        <mxCell id="sycoFVPmuBbPcmt5koh0-306" style="edgeStyle=none;rounded=0;orthogonalLoop=1;jettySize=auto;html=1;endArrow=diamondThin;endFill=1;endSize=15;" edge="1" parent="1" source="sycoFVPmuBbPcmt5koh0-284" target="sycoFVPmuBbPcmt5koh0-250">
          <mxGeometry relative="1" as="geometry" />
        </mxCell>
      </root>
    </mxGraphModel>
  </diagram>
</mxfile>
